<mxfile host="Electron" agent="Mozilla/5.0 (Windows NT 10.0; Win64; x64) AppleWebKit/537.36 (KHTML, like Gecko) draw.io/27.0.9 Chrome/134.0.6998.205 Electron/35.4.0 Safari/537.36" version="27.0.9">
  <diagram name="Page-1" id="0pLAkOC2CUWkNvCjqS6c">
    <mxGraphModel dx="2102" dy="1580" grid="1" gridSize="10" guides="1" tooltips="1" connect="1" arrows="1" fold="1" page="0" pageScale="1" pageWidth="850" pageHeight="1100" math="0" shadow="0">
      <root>
        <mxCell id="0" />
        <mxCell id="1" parent="0" />
        <mxCell id="zvRM5CVGM6omRtUVVqOW-302" value="" style="triangle;whiteSpace=wrap;html=1;fontSize=8;fillColor=#000000;" parent="1" vertex="1">
          <mxGeometry x="330" y="278" width="12" height="14" as="geometry" />
        </mxCell>
        <mxCell id="zvRM5CVGM6omRtUVVqOW-18" value="&lt;font style=&quot;font-size: 16px;&quot;&gt;guest&lt;/font&gt;" style="shape=table;startSize=30;container=1;collapsible=1;childLayout=tableLayout;fixedRows=1;rowLines=0;fontStyle=1;align=center;resizeLast=1;html=1;" parent="1" vertex="1">
          <mxGeometry x="20" y="278" width="180" height="150" as="geometry">
            <mxRectangle x="90" y="280" width="70" height="30" as="alternateBounds" />
          </mxGeometry>
        </mxCell>
        <mxCell id="zvRM5CVGM6omRtUVVqOW-19" value="" style="shape=tableRow;horizontal=0;startSize=0;swimlaneHead=0;swimlaneBody=0;fillColor=none;collapsible=0;dropTarget=0;points=[[0,0.5],[1,0.5]];portConstraint=eastwest;top=0;left=0;right=0;bottom=1;" parent="zvRM5CVGM6omRtUVVqOW-18" vertex="1">
          <mxGeometry y="30" width="180" height="30" as="geometry" />
        </mxCell>
        <mxCell id="zvRM5CVGM6omRtUVVqOW-20" value="PK" style="shape=partialRectangle;connectable=0;fillColor=none;top=0;left=0;bottom=0;right=0;fontStyle=1;overflow=hidden;whiteSpace=wrap;html=1;" parent="zvRM5CVGM6omRtUVVqOW-19" vertex="1">
          <mxGeometry width="30" height="30" as="geometry">
            <mxRectangle width="30" height="30" as="alternateBounds" />
          </mxGeometry>
        </mxCell>
        <mxCell id="zvRM5CVGM6omRtUVVqOW-21" value="guest_id" style="shape=partialRectangle;connectable=0;fillColor=none;top=0;left=0;bottom=0;right=0;align=left;spacingLeft=6;fontStyle=5;overflow=hidden;whiteSpace=wrap;html=1;" parent="zvRM5CVGM6omRtUVVqOW-19" vertex="1">
          <mxGeometry x="30" width="150" height="30" as="geometry">
            <mxRectangle width="150" height="30" as="alternateBounds" />
          </mxGeometry>
        </mxCell>
        <mxCell id="tqqghsH9DW6v7tpCUAz7-53" value="" style="shape=tableRow;horizontal=0;startSize=0;swimlaneHead=0;swimlaneBody=0;fillColor=none;collapsible=0;dropTarget=0;points=[[0,0.5],[1,0.5]];portConstraint=eastwest;top=0;left=0;right=0;bottom=0;" parent="zvRM5CVGM6omRtUVVqOW-18" vertex="1">
          <mxGeometry y="60" width="180" height="30" as="geometry" />
        </mxCell>
        <mxCell id="tqqghsH9DW6v7tpCUAz7-54" value="" style="shape=partialRectangle;connectable=0;fillColor=none;top=0;left=0;bottom=0;right=0;editable=1;overflow=hidden;whiteSpace=wrap;html=1;" parent="tqqghsH9DW6v7tpCUAz7-53" vertex="1">
          <mxGeometry width="30" height="30" as="geometry">
            <mxRectangle width="30" height="30" as="alternateBounds" />
          </mxGeometry>
        </mxCell>
        <mxCell id="tqqghsH9DW6v7tpCUAz7-55" value="name" style="shape=partialRectangle;connectable=0;fillColor=none;top=0;left=0;bottom=0;right=0;align=left;spacingLeft=6;overflow=hidden;whiteSpace=wrap;html=1;" parent="tqqghsH9DW6v7tpCUAz7-53" vertex="1">
          <mxGeometry x="30" width="150" height="30" as="geometry">
            <mxRectangle width="150" height="30" as="alternateBounds" />
          </mxGeometry>
        </mxCell>
        <mxCell id="zvRM5CVGM6omRtUVVqOW-25" value="" style="shape=tableRow;horizontal=0;startSize=0;swimlaneHead=0;swimlaneBody=0;fillColor=none;collapsible=0;dropTarget=0;points=[[0,0.5],[1,0.5]];portConstraint=eastwest;top=0;left=0;right=0;bottom=0;" parent="zvRM5CVGM6omRtUVVqOW-18" vertex="1">
          <mxGeometry y="90" width="180" height="30" as="geometry" />
        </mxCell>
        <mxCell id="zvRM5CVGM6omRtUVVqOW-26" value="" style="shape=partialRectangle;connectable=0;fillColor=none;top=0;left=0;bottom=0;right=0;editable=1;overflow=hidden;whiteSpace=wrap;html=1;" parent="zvRM5CVGM6omRtUVVqOW-25" vertex="1">
          <mxGeometry width="30" height="30" as="geometry">
            <mxRectangle width="30" height="30" as="alternateBounds" />
          </mxGeometry>
        </mxCell>
        <mxCell id="zvRM5CVGM6omRtUVVqOW-27" value="contact_no" style="shape=partialRectangle;connectable=0;fillColor=none;top=0;left=0;bottom=0;right=0;align=left;spacingLeft=6;overflow=hidden;whiteSpace=wrap;html=1;" parent="zvRM5CVGM6omRtUVVqOW-25" vertex="1">
          <mxGeometry x="30" width="150" height="30" as="geometry">
            <mxRectangle width="150" height="30" as="alternateBounds" />
          </mxGeometry>
        </mxCell>
        <mxCell id="zvRM5CVGM6omRtUVVqOW-28" value="" style="shape=tableRow;horizontal=0;startSize=0;swimlaneHead=0;swimlaneBody=0;fillColor=none;collapsible=0;dropTarget=0;points=[[0,0.5],[1,0.5]];portConstraint=eastwest;top=0;left=0;right=0;bottom=0;" parent="zvRM5CVGM6omRtUVVqOW-18" vertex="1">
          <mxGeometry y="120" width="180" height="30" as="geometry" />
        </mxCell>
        <mxCell id="zvRM5CVGM6omRtUVVqOW-29" value="" style="shape=partialRectangle;connectable=0;fillColor=none;top=0;left=0;bottom=0;right=0;editable=1;overflow=hidden;whiteSpace=wrap;html=1;" parent="zvRM5CVGM6omRtUVVqOW-28" vertex="1">
          <mxGeometry width="30" height="30" as="geometry">
            <mxRectangle width="30" height="30" as="alternateBounds" />
          </mxGeometry>
        </mxCell>
        <mxCell id="zvRM5CVGM6omRtUVVqOW-30" value="email" style="shape=partialRectangle;connectable=0;fillColor=none;top=0;left=0;bottom=0;right=0;align=left;spacingLeft=6;overflow=hidden;whiteSpace=wrap;html=1;" parent="zvRM5CVGM6omRtUVVqOW-28" vertex="1">
          <mxGeometry x="30" width="150" height="30" as="geometry">
            <mxRectangle width="150" height="30" as="alternateBounds" />
          </mxGeometry>
        </mxCell>
        <object label="&lt;font style=&quot;font-size: 16px;&quot;&gt;reserv&lt;/font&gt;" checkOutDate="f" id="zvRM5CVGM6omRtUVVqOW-31">
          <mxCell style="shape=table;startSize=30;container=1;collapsible=1;childLayout=tableLayout;fixedRows=1;rowLines=0;fontStyle=1;align=center;resizeLast=1;html=1;" parent="1" vertex="1">
            <mxGeometry x="370" y="278" width="180" height="300" as="geometry">
              <mxRectangle x="370" y="280" width="100" height="30" as="alternateBounds" />
            </mxGeometry>
          </mxCell>
        </object>
        <mxCell id="zvRM5CVGM6omRtUVVqOW-32" value="" style="shape=tableRow;horizontal=0;startSize=0;swimlaneHead=0;swimlaneBody=0;fillColor=none;collapsible=0;dropTarget=0;points=[[0,0.5],[1,0.5]];portConstraint=eastwest;top=0;left=0;right=0;bottom=1;" parent="zvRM5CVGM6omRtUVVqOW-31" vertex="1">
          <mxGeometry y="30" width="180" height="30" as="geometry" />
        </mxCell>
        <mxCell id="zvRM5CVGM6omRtUVVqOW-33" value="PK" style="shape=partialRectangle;connectable=0;fillColor=none;top=0;left=0;bottom=0;right=0;fontStyle=1;overflow=hidden;whiteSpace=wrap;html=1;" parent="zvRM5CVGM6omRtUVVqOW-32" vertex="1">
          <mxGeometry width="30" height="30" as="geometry">
            <mxRectangle width="30" height="30" as="alternateBounds" />
          </mxGeometry>
        </mxCell>
        <mxCell id="zvRM5CVGM6omRtUVVqOW-34" value="reserv_id" style="shape=partialRectangle;connectable=0;fillColor=none;top=0;left=0;bottom=0;right=0;align=left;spacingLeft=6;fontStyle=5;overflow=hidden;whiteSpace=wrap;html=1;" parent="zvRM5CVGM6omRtUVVqOW-32" vertex="1">
          <mxGeometry x="30" width="150" height="30" as="geometry">
            <mxRectangle width="150" height="30" as="alternateBounds" />
          </mxGeometry>
        </mxCell>
        <mxCell id="zvRM5CVGM6omRtUVVqOW-35" value="" style="shape=tableRow;horizontal=0;startSize=0;swimlaneHead=0;swimlaneBody=0;fillColor=none;collapsible=0;dropTarget=0;points=[[0,0.5],[1,0.5]];portConstraint=eastwest;top=0;left=0;right=0;bottom=0;" parent="zvRM5CVGM6omRtUVVqOW-31" vertex="1">
          <mxGeometry y="60" width="180" height="30" as="geometry" />
        </mxCell>
        <mxCell id="zvRM5CVGM6omRtUVVqOW-36" value="" style="shape=partialRectangle;connectable=0;fillColor=none;top=0;left=0;bottom=0;right=0;editable=1;overflow=hidden;whiteSpace=wrap;html=1;" parent="zvRM5CVGM6omRtUVVqOW-35" vertex="1">
          <mxGeometry width="30" height="30" as="geometry">
            <mxRectangle width="30" height="30" as="alternateBounds" />
          </mxGeometry>
        </mxCell>
        <mxCell id="zvRM5CVGM6omRtUVVqOW-37" value="room_id[1..*]" style="shape=partialRectangle;connectable=0;fillColor=none;top=0;left=0;bottom=0;right=0;align=left;spacingLeft=6;overflow=hidden;whiteSpace=wrap;html=1;" parent="zvRM5CVGM6omRtUVVqOW-35" vertex="1">
          <mxGeometry x="30" width="150" height="30" as="geometry">
            <mxRectangle width="150" height="30" as="alternateBounds" />
          </mxGeometry>
        </mxCell>
        <mxCell id="zvRM5CVGM6omRtUVVqOW-38" value="" style="shape=tableRow;horizontal=0;startSize=0;swimlaneHead=0;swimlaneBody=0;fillColor=none;collapsible=0;dropTarget=0;points=[[0,0.5],[1,0.5]];portConstraint=eastwest;top=0;left=0;right=0;bottom=0;" parent="zvRM5CVGM6omRtUVVqOW-31" vertex="1">
          <mxGeometry y="90" width="180" height="30" as="geometry" />
        </mxCell>
        <mxCell id="zvRM5CVGM6omRtUVVqOW-39" value="" style="shape=partialRectangle;connectable=0;fillColor=none;top=0;left=0;bottom=0;right=0;editable=1;overflow=hidden;whiteSpace=wrap;html=1;" parent="zvRM5CVGM6omRtUVVqOW-38" vertex="1">
          <mxGeometry width="30" height="30" as="geometry">
            <mxRectangle width="30" height="30" as="alternateBounds" />
          </mxGeometry>
        </mxCell>
        <mxCell id="zvRM5CVGM6omRtUVVqOW-40" value="guest_id" style="shape=partialRectangle;connectable=0;fillColor=none;top=0;left=0;bottom=0;right=0;align=left;spacingLeft=6;overflow=hidden;whiteSpace=wrap;html=1;" parent="zvRM5CVGM6omRtUVVqOW-38" vertex="1">
          <mxGeometry x="30" width="150" height="30" as="geometry">
            <mxRectangle width="150" height="30" as="alternateBounds" />
          </mxGeometry>
        </mxCell>
        <mxCell id="Qpo9YTYw9KrvKWav0Io7-1" value="" style="shape=tableRow;horizontal=0;startSize=0;swimlaneHead=0;swimlaneBody=0;fillColor=none;collapsible=0;dropTarget=0;points=[[0,0.5],[1,0.5]];portConstraint=eastwest;top=0;left=0;right=0;bottom=0;" parent="zvRM5CVGM6omRtUVVqOW-31" vertex="1">
          <mxGeometry y="120" width="180" height="30" as="geometry" />
        </mxCell>
        <mxCell id="Qpo9YTYw9KrvKWav0Io7-2" value="" style="shape=partialRectangle;connectable=0;fillColor=none;top=0;left=0;bottom=0;right=0;editable=1;overflow=hidden;whiteSpace=wrap;html=1;" parent="Qpo9YTYw9KrvKWav0Io7-1" vertex="1">
          <mxGeometry width="30" height="30" as="geometry">
            <mxRectangle width="30" height="30" as="alternateBounds" />
          </mxGeometry>
        </mxCell>
        <mxCell id="Qpo9YTYw9KrvKWav0Io7-3" value="&lt;br&gt;&lt;div&gt;recep_id&lt;/div&gt;" style="shape=partialRectangle;connectable=0;fillColor=none;top=0;left=0;bottom=0;right=0;align=left;spacingLeft=6;overflow=hidden;whiteSpace=wrap;html=1;spacingBottom=-4;" parent="Qpo9YTYw9KrvKWav0Io7-1" vertex="1">
          <mxGeometry x="30" width="150" height="30" as="geometry">
            <mxRectangle width="150" height="30" as="alternateBounds" />
          </mxGeometry>
        </mxCell>
        <mxCell id="36XY1oAK7Upr5J2Sa984-1" value="" style="shape=tableRow;horizontal=0;startSize=0;swimlaneHead=0;swimlaneBody=0;fillColor=none;collapsible=0;dropTarget=0;points=[[0,0.5],[1,0.5]];portConstraint=eastwest;top=0;left=0;right=0;bottom=0;" parent="zvRM5CVGM6omRtUVVqOW-31" vertex="1">
          <mxGeometry y="150" width="180" height="30" as="geometry" />
        </mxCell>
        <mxCell id="36XY1oAK7Upr5J2Sa984-2" value="" style="shape=partialRectangle;connectable=0;fillColor=none;top=0;left=0;bottom=0;right=0;editable=1;overflow=hidden;whiteSpace=wrap;html=1;" parent="36XY1oAK7Upr5J2Sa984-1" vertex="1">
          <mxGeometry width="30" height="30" as="geometry">
            <mxRectangle width="30" height="30" as="alternateBounds" />
          </mxGeometry>
        </mxCell>
        <mxCell id="36XY1oAK7Upr5J2Sa984-3" value="advance_payment" style="shape=partialRectangle;connectable=0;fillColor=none;top=0;left=0;bottom=0;right=0;align=left;spacingLeft=6;overflow=hidden;whiteSpace=wrap;html=1;" parent="36XY1oAK7Upr5J2Sa984-1" vertex="1">
          <mxGeometry x="30" width="150" height="30" as="geometry">
            <mxRectangle width="150" height="30" as="alternateBounds" />
          </mxGeometry>
        </mxCell>
        <mxCell id="zvRM5CVGM6omRtUVVqOW-118" value="" style="shape=tableRow;horizontal=0;startSize=0;swimlaneHead=0;swimlaneBody=0;fillColor=none;collapsible=0;dropTarget=0;points=[[0,0.5],[1,0.5]];portConstraint=eastwest;top=0;left=0;right=0;bottom=0;" parent="zvRM5CVGM6omRtUVVqOW-31" vertex="1">
          <mxGeometry y="180" width="180" height="30" as="geometry" />
        </mxCell>
        <mxCell id="zvRM5CVGM6omRtUVVqOW-119" value="" style="shape=partialRectangle;connectable=0;fillColor=none;top=0;left=0;bottom=0;right=0;editable=1;overflow=hidden;whiteSpace=wrap;html=1;" parent="zvRM5CVGM6omRtUVVqOW-118" vertex="1">
          <mxGeometry width="30" height="30" as="geometry">
            <mxRectangle width="30" height="30" as="alternateBounds" />
          </mxGeometry>
        </mxCell>
        <mxCell id="zvRM5CVGM6omRtUVVqOW-120" value="reserv_time" style="shape=partialRectangle;connectable=0;fillColor=none;top=0;left=0;bottom=0;right=0;align=left;spacingLeft=6;overflow=hidden;whiteSpace=wrap;html=1;" parent="zvRM5CVGM6omRtUVVqOW-118" vertex="1">
          <mxGeometry x="30" width="150" height="30" as="geometry">
            <mxRectangle width="150" height="30" as="alternateBounds" />
          </mxGeometry>
        </mxCell>
        <mxCell id="zvRM5CVGM6omRtUVVqOW-41" value="" style="shape=tableRow;horizontal=0;startSize=0;swimlaneHead=0;swimlaneBody=0;fillColor=none;collapsible=0;dropTarget=0;points=[[0,0.5],[1,0.5]];portConstraint=eastwest;top=0;left=0;right=0;bottom=0;" parent="zvRM5CVGM6omRtUVVqOW-31" vertex="1">
          <mxGeometry y="210" width="180" height="30" as="geometry" />
        </mxCell>
        <mxCell id="zvRM5CVGM6omRtUVVqOW-42" value="" style="shape=partialRectangle;connectable=0;fillColor=none;top=0;left=0;bottom=0;right=0;editable=1;overflow=hidden;whiteSpace=wrap;html=1;" parent="zvRM5CVGM6omRtUVVqOW-41" vertex="1">
          <mxGeometry width="30" height="30" as="geometry">
            <mxRectangle width="30" height="30" as="alternateBounds" />
          </mxGeometry>
        </mxCell>
        <object label="check_in_date" checkOutDate="" reservationStatus="" id="zvRM5CVGM6omRtUVVqOW-43">
          <mxCell style="shape=partialRectangle;connectable=0;fillColor=none;top=0;left=0;bottom=0;right=0;align=left;spacingLeft=6;overflow=hidden;whiteSpace=wrap;html=1;" parent="zvRM5CVGM6omRtUVVqOW-41" vertex="1">
            <mxGeometry x="30" width="150" height="30" as="geometry">
              <mxRectangle width="150" height="30" as="alternateBounds" />
            </mxGeometry>
          </mxCell>
        </object>
        <mxCell id="zvRM5CVGM6omRtUVVqOW-112" value="" style="shape=tableRow;horizontal=0;startSize=0;swimlaneHead=0;swimlaneBody=0;fillColor=none;collapsible=0;dropTarget=0;points=[[0,0.5],[1,0.5]];portConstraint=eastwest;top=0;left=0;right=0;bottom=0;" parent="zvRM5CVGM6omRtUVVqOW-31" vertex="1">
          <mxGeometry y="240" width="180" height="30" as="geometry" />
        </mxCell>
        <mxCell id="zvRM5CVGM6omRtUVVqOW-113" value="" style="shape=partialRectangle;connectable=0;fillColor=none;top=0;left=0;bottom=0;right=0;editable=1;overflow=hidden;whiteSpace=wrap;html=1;" parent="zvRM5CVGM6omRtUVVqOW-112" vertex="1">
          <mxGeometry width="30" height="30" as="geometry">
            <mxRectangle width="30" height="30" as="alternateBounds" />
          </mxGeometry>
        </mxCell>
        <object label="check_out_date" checkOutDate="" reservationStatus="" id="zvRM5CVGM6omRtUVVqOW-114">
          <mxCell style="shape=partialRectangle;connectable=0;fillColor=none;top=0;left=0;bottom=0;right=0;align=left;spacingLeft=6;overflow=hidden;whiteSpace=wrap;html=1;" parent="zvRM5CVGM6omRtUVVqOW-112" vertex="1">
            <mxGeometry x="30" width="150" height="30" as="geometry">
              <mxRectangle width="150" height="30" as="alternateBounds" />
            </mxGeometry>
          </mxCell>
        </object>
        <mxCell id="gGGt56j2kRQqNfU9XrBM-1" value="" style="shape=tableRow;horizontal=0;startSize=0;swimlaneHead=0;swimlaneBody=0;fillColor=none;collapsible=0;dropTarget=0;points=[[0,0.5],[1,0.5]];portConstraint=eastwest;top=0;left=0;right=0;bottom=0;" parent="zvRM5CVGM6omRtUVVqOW-31" vertex="1">
          <mxGeometry y="270" width="180" height="30" as="geometry" />
        </mxCell>
        <mxCell id="gGGt56j2kRQqNfU9XrBM-2" value="" style="shape=partialRectangle;connectable=0;fillColor=none;top=0;left=0;bottom=0;right=0;editable=1;overflow=hidden;whiteSpace=wrap;html=1;" parent="gGGt56j2kRQqNfU9XrBM-1" vertex="1">
          <mxGeometry width="30" height="30" as="geometry">
            <mxRectangle width="30" height="30" as="alternateBounds" />
          </mxGeometry>
        </mxCell>
        <object label="reserv_status" checkOutDate="" reservationStatus="" id="gGGt56j2kRQqNfU9XrBM-3">
          <mxCell style="shape=partialRectangle;connectable=0;fillColor=none;top=0;left=0;bottom=0;right=0;align=left;spacingLeft=6;overflow=hidden;whiteSpace=wrap;html=1;" parent="gGGt56j2kRQqNfU9XrBM-1" vertex="1">
            <mxGeometry x="30" width="150" height="30" as="geometry">
              <mxRectangle width="150" height="30" as="alternateBounds" />
            </mxGeometry>
          </mxCell>
        </object>
        <mxCell id="zvRM5CVGM6omRtUVVqOW-138" value="" style="endArrow=none;html=1;rounded=0;entryX=0.003;entryY=0.054;entryDx=0;entryDy=0;entryPerimeter=0;exitX=1.016;exitY=0.092;exitDx=0;exitDy=0;exitPerimeter=0;" parent="1" source="zvRM5CVGM6omRtUVVqOW-18" target="zvRM5CVGM6omRtUVVqOW-31" edge="1">
          <mxGeometry width="50" height="50" relative="1" as="geometry">
            <mxPoint x="234" y="300" as="sourcePoint" />
            <mxPoint x="350" y="280" as="targetPoint" />
            <Array as="points" />
          </mxGeometry>
        </mxCell>
        <mxCell id="zvRM5CVGM6omRtUVVqOW-150" value="&lt;font style=&quot;font-size: 16px;&quot;&gt;room&lt;/font&gt;" style="shape=table;startSize=30;container=1;collapsible=1;childLayout=tableLayout;fixedRows=1;rowLines=0;fontStyle=1;align=center;resizeLast=1;html=1;" parent="1" vertex="1">
          <mxGeometry x="926" y="340" width="180" height="92" as="geometry">
            <mxRectangle x="650" y="280" width="70" height="30" as="alternateBounds" />
          </mxGeometry>
        </mxCell>
        <mxCell id="zvRM5CVGM6omRtUVVqOW-151" value="" style="shape=tableRow;horizontal=0;startSize=0;swimlaneHead=0;swimlaneBody=0;fillColor=none;collapsible=0;dropTarget=0;points=[[0,0.5],[1,0.5]];portConstraint=eastwest;top=0;left=0;right=0;bottom=1;" parent="zvRM5CVGM6omRtUVVqOW-150" vertex="1">
          <mxGeometry y="30" width="180" height="32" as="geometry" />
        </mxCell>
        <mxCell id="zvRM5CVGM6omRtUVVqOW-152" value="PK" style="shape=partialRectangle;connectable=0;fillColor=none;top=0;left=0;bottom=0;right=0;fontStyle=1;overflow=hidden;whiteSpace=wrap;html=1;" parent="zvRM5CVGM6omRtUVVqOW-151" vertex="1">
          <mxGeometry width="30" height="32" as="geometry">
            <mxRectangle width="30" height="32" as="alternateBounds" />
          </mxGeometry>
        </mxCell>
        <mxCell id="zvRM5CVGM6omRtUVVqOW-153" value="room_id" style="shape=partialRectangle;connectable=0;fillColor=none;top=0;left=0;bottom=0;right=0;align=left;spacingLeft=6;fontStyle=5;overflow=hidden;whiteSpace=wrap;html=1;" parent="zvRM5CVGM6omRtUVVqOW-151" vertex="1">
          <mxGeometry x="30" width="150" height="32" as="geometry">
            <mxRectangle width="150" height="32" as="alternateBounds" />
          </mxGeometry>
        </mxCell>
        <mxCell id="zvRM5CVGM6omRtUVVqOW-157" value="" style="shape=tableRow;horizontal=0;startSize=0;swimlaneHead=0;swimlaneBody=0;fillColor=none;collapsible=0;dropTarget=0;points=[[0,0.5],[1,0.5]];portConstraint=eastwest;top=0;left=0;right=0;bottom=0;" parent="zvRM5CVGM6omRtUVVqOW-150" vertex="1">
          <mxGeometry y="62" width="180" height="30" as="geometry" />
        </mxCell>
        <mxCell id="zvRM5CVGM6omRtUVVqOW-158" value="" style="shape=partialRectangle;connectable=0;fillColor=none;top=0;left=0;bottom=0;right=0;editable=1;overflow=hidden;whiteSpace=wrap;html=1;" parent="zvRM5CVGM6omRtUVVqOW-157" vertex="1">
          <mxGeometry width="30" height="30" as="geometry">
            <mxRectangle width="30" height="30" as="alternateBounds" />
          </mxGeometry>
        </mxCell>
        <mxCell id="zvRM5CVGM6omRtUVVqOW-159" value="room_type_id" style="shape=partialRectangle;connectable=0;fillColor=none;top=0;left=0;bottom=0;right=0;align=left;spacingLeft=6;overflow=hidden;whiteSpace=wrap;html=1;" parent="zvRM5CVGM6omRtUVVqOW-157" vertex="1">
          <mxGeometry x="30" width="150" height="30" as="geometry">
            <mxRectangle width="150" height="30" as="alternateBounds" />
          </mxGeometry>
        </mxCell>
        <mxCell id="zvRM5CVGM6omRtUVVqOW-256" value="makes" style="text;strokeColor=none;align=center;fillColor=none;html=1;verticalAlign=middle;whiteSpace=wrap;rounded=0;fontStyle=1;fontSize=15;" parent="1" vertex="1">
          <mxGeometry x="286" y="280" width="30" height="10" as="geometry" />
        </mxCell>
        <mxCell id="zvRM5CVGM6omRtUVVqOW-259" value="&lt;b&gt;&lt;font style=&quot;font-size: 15px;&quot;&gt;&lt;br&gt;&lt;/font&gt;&lt;/b&gt;&lt;div&gt;&lt;b&gt;&lt;font style=&quot;font-size: 15px;&quot;&gt;1..1&lt;/font&gt;&lt;/b&gt;&lt;/div&gt;" style="text;html=1;align=center;verticalAlign=middle;resizable=0;points=[];autosize=1;strokeColor=none;fillColor=none;" parent="1" vertex="1">
          <mxGeometry x="200" y="290" width="50" height="50" as="geometry" />
        </mxCell>
        <mxCell id="zvRM5CVGM6omRtUVVqOW-260" value="&lt;b&gt;&lt;font style=&quot;font-size: 15px;&quot;&gt;&lt;br&gt;&lt;/font&gt;&lt;/b&gt;&lt;div&gt;&lt;b&gt;&lt;font style=&quot;font-size: 15px;&quot;&gt;1..*&lt;/font&gt;&lt;/b&gt;&lt;/div&gt;" style="text;html=1;align=center;verticalAlign=middle;resizable=0;points=[];autosize=1;strokeColor=none;fillColor=none;" parent="1" vertex="1">
          <mxGeometry x="330" y="288" width="50" height="50" as="geometry" />
        </mxCell>
        <mxCell id="zvRM5CVGM6omRtUVVqOW-270" value="&lt;div&gt;reserves&lt;/div&gt;" style="text;html=1;align=center;verticalAlign=middle;resizable=0;points=[];autosize=1;strokeColor=none;fillColor=none;fontStyle=1;fontSize=15;" parent="1" vertex="1">
          <mxGeometry x="740.5" y="340" width="80" height="30" as="geometry" />
        </mxCell>
        <mxCell id="zvRM5CVGM6omRtUVVqOW-275" value="&lt;font style=&quot;font-size: 16px;&quot;&gt;&lt;br&gt;&lt;/font&gt;&lt;div&gt;&lt;font style=&quot;font-size: 16px;&quot;&gt;bill&lt;/font&gt;&lt;/div&gt;" style="shape=table;startSize=30;container=1;collapsible=1;childLayout=tableLayout;fixedRows=1;rowLines=0;fontStyle=1;align=center;resizeLast=1;html=1;verticalAlign=bottom;" parent="1" vertex="1">
          <mxGeometry x="350" y="680" width="180" height="180" as="geometry" />
        </mxCell>
        <mxCell id="zvRM5CVGM6omRtUVVqOW-276" value="" style="shape=tableRow;horizontal=0;startSize=0;swimlaneHead=0;swimlaneBody=0;fillColor=none;collapsible=0;dropTarget=0;points=[[0,0.5],[1,0.5]];portConstraint=eastwest;top=0;left=0;right=0;bottom=1;" parent="zvRM5CVGM6omRtUVVqOW-275" vertex="1">
          <mxGeometry y="30" width="180" height="30" as="geometry" />
        </mxCell>
        <mxCell id="zvRM5CVGM6omRtUVVqOW-277" value="PK" style="shape=partialRectangle;connectable=0;fillColor=none;top=0;left=0;bottom=0;right=0;fontStyle=1;overflow=hidden;whiteSpace=wrap;html=1;" parent="zvRM5CVGM6omRtUVVqOW-276" vertex="1">
          <mxGeometry width="30" height="30" as="geometry">
            <mxRectangle width="30" height="30" as="alternateBounds" />
          </mxGeometry>
        </mxCell>
        <mxCell id="zvRM5CVGM6omRtUVVqOW-278" value="&lt;br&gt;&lt;div&gt;bill_id&lt;/div&gt;" style="shape=partialRectangle;connectable=0;fillColor=none;top=0;left=0;bottom=0;right=0;align=left;spacingLeft=6;fontStyle=5;overflow=hidden;whiteSpace=wrap;html=1;" parent="zvRM5CVGM6omRtUVVqOW-276" vertex="1">
          <mxGeometry x="30" width="150" height="30" as="geometry">
            <mxRectangle width="150" height="30" as="alternateBounds" />
          </mxGeometry>
        </mxCell>
        <mxCell id="zvRM5CVGM6omRtUVVqOW-279" value="" style="shape=tableRow;horizontal=0;startSize=0;swimlaneHead=0;swimlaneBody=0;fillColor=none;collapsible=0;dropTarget=0;points=[[0,0.5],[1,0.5]];portConstraint=eastwest;top=0;left=0;right=0;bottom=0;" parent="zvRM5CVGM6omRtUVVqOW-275" vertex="1">
          <mxGeometry y="60" width="180" height="30" as="geometry" />
        </mxCell>
        <mxCell id="zvRM5CVGM6omRtUVVqOW-280" value="" style="shape=partialRectangle;connectable=0;fillColor=none;top=0;left=0;bottom=0;right=0;editable=1;overflow=hidden;whiteSpace=wrap;html=1;" parent="zvRM5CVGM6omRtUVVqOW-279" vertex="1">
          <mxGeometry width="30" height="30" as="geometry">
            <mxRectangle width="30" height="30" as="alternateBounds" />
          </mxGeometry>
        </mxCell>
        <mxCell id="zvRM5CVGM6omRtUVVqOW-281" value="&lt;br&gt;&lt;div&gt;reserv_id&lt;/div&gt;" style="shape=partialRectangle;connectable=0;fillColor=none;top=0;left=0;bottom=0;right=0;align=left;spacingLeft=6;overflow=hidden;whiteSpace=wrap;html=1;" parent="zvRM5CVGM6omRtUVVqOW-279" vertex="1">
          <mxGeometry x="30" width="150" height="30" as="geometry">
            <mxRectangle width="150" height="30" as="alternateBounds" />
          </mxGeometry>
        </mxCell>
        <mxCell id="zvRM5CVGM6omRtUVVqOW-282" value="" style="shape=tableRow;horizontal=0;startSize=0;swimlaneHead=0;swimlaneBody=0;fillColor=none;collapsible=0;dropTarget=0;points=[[0,0.5],[1,0.5]];portConstraint=eastwest;top=0;left=0;right=0;bottom=0;" parent="zvRM5CVGM6omRtUVVqOW-275" vertex="1">
          <mxGeometry y="90" width="180" height="30" as="geometry" />
        </mxCell>
        <mxCell id="zvRM5CVGM6omRtUVVqOW-283" value="" style="shape=partialRectangle;connectable=0;fillColor=none;top=0;left=0;bottom=0;right=0;editable=1;overflow=hidden;whiteSpace=wrap;html=1;" parent="zvRM5CVGM6omRtUVVqOW-282" vertex="1">
          <mxGeometry width="30" height="30" as="geometry">
            <mxRectangle width="30" height="30" as="alternateBounds" />
          </mxGeometry>
        </mxCell>
        <mxCell id="zvRM5CVGM6omRtUVVqOW-284" value="amount" style="shape=partialRectangle;connectable=0;fillColor=none;top=0;left=0;bottom=0;right=0;align=left;spacingLeft=6;overflow=hidden;whiteSpace=wrap;html=1;" parent="zvRM5CVGM6omRtUVVqOW-282" vertex="1">
          <mxGeometry x="30" width="150" height="30" as="geometry">
            <mxRectangle width="150" height="30" as="alternateBounds" />
          </mxGeometry>
        </mxCell>
        <mxCell id="zvRM5CVGM6omRtUVVqOW-285" value="" style="shape=tableRow;horizontal=0;startSize=0;swimlaneHead=0;swimlaneBody=0;fillColor=none;collapsible=0;dropTarget=0;points=[[0,0.5],[1,0.5]];portConstraint=eastwest;top=0;left=0;right=0;bottom=0;" parent="zvRM5CVGM6omRtUVVqOW-275" vertex="1">
          <mxGeometry y="120" width="180" height="30" as="geometry" />
        </mxCell>
        <mxCell id="zvRM5CVGM6omRtUVVqOW-286" value="" style="shape=partialRectangle;connectable=0;fillColor=none;top=0;left=0;bottom=0;right=0;editable=1;overflow=hidden;whiteSpace=wrap;html=1;" parent="zvRM5CVGM6omRtUVVqOW-285" vertex="1">
          <mxGeometry width="30" height="30" as="geometry">
            <mxRectangle width="30" height="30" as="alternateBounds" />
          </mxGeometry>
        </mxCell>
        <mxCell id="zvRM5CVGM6omRtUVVqOW-287" value="&lt;div style=&quot;padding-bottom: 5px;&quot;&gt;payment_status&lt;/div&gt;" style="shape=partialRectangle;connectable=0;fillColor=none;top=0;left=0;bottom=0;right=0;align=left;spacingLeft=6;overflow=hidden;whiteSpace=wrap;html=1;" parent="zvRM5CVGM6omRtUVVqOW-285" vertex="1">
          <mxGeometry x="30" width="150" height="30" as="geometry">
            <mxRectangle width="150" height="30" as="alternateBounds" />
          </mxGeometry>
        </mxCell>
        <mxCell id="zvRM5CVGM6omRtUVVqOW-288" value="" style="shape=tableRow;horizontal=0;startSize=0;swimlaneHead=0;swimlaneBody=0;fillColor=none;collapsible=0;dropTarget=0;points=[[0,0.5],[1,0.5]];portConstraint=eastwest;top=0;left=0;right=0;bottom=0;" parent="zvRM5CVGM6omRtUVVqOW-275" vertex="1">
          <mxGeometry y="150" width="180" height="30" as="geometry" />
        </mxCell>
        <mxCell id="zvRM5CVGM6omRtUVVqOW-289" value="" style="shape=partialRectangle;connectable=0;fillColor=none;top=0;left=0;bottom=0;right=0;editable=1;overflow=hidden;whiteSpace=wrap;html=1;" parent="zvRM5CVGM6omRtUVVqOW-288" vertex="1">
          <mxGeometry width="30" height="30" as="geometry">
            <mxRectangle width="30" height="30" as="alternateBounds" />
          </mxGeometry>
        </mxCell>
        <mxCell id="zvRM5CVGM6omRtUVVqOW-290" value="&lt;div&gt;payment_date&lt;/div&gt;" style="shape=partialRectangle;connectable=0;fillColor=none;top=0;left=0;bottom=0;right=0;align=left;spacingLeft=6;overflow=hidden;whiteSpace=wrap;html=1;" parent="zvRM5CVGM6omRtUVVqOW-288" vertex="1">
          <mxGeometry x="30" width="150" height="30" as="geometry">
            <mxRectangle width="150" height="30" as="alternateBounds" />
          </mxGeometry>
        </mxCell>
        <mxCell id="zvRM5CVGM6omRtUVVqOW-292" value="" style="endArrow=none;html=1;rounded=0;exitX=0.189;exitY=-0.012;exitDx=0;exitDy=0;exitPerimeter=0;" parent="1" edge="1">
          <mxGeometry width="50" height="50" relative="1" as="geometry">
            <mxPoint x="389.02" y="679.9999999999999" as="sourcePoint" />
            <mxPoint x="389" y="572.16" as="targetPoint" />
          </mxGeometry>
        </mxCell>
        <mxCell id="zvRM5CVGM6omRtUVVqOW-293" value="generates" style="text;html=1;align=center;verticalAlign=middle;resizable=0;points=[];autosize=1;strokeColor=none;fillColor=none;fontStyle=1;fontSize=15;" parent="1" vertex="1">
          <mxGeometry x="380" y="620" width="90" height="30" as="geometry" />
        </mxCell>
        <mxCell id="zvRM5CVGM6omRtUVVqOW-294" value="" style="triangle;whiteSpace=wrap;html=1;fillColor=#000000;direction=south;" parent="1" vertex="1">
          <mxGeometry x="390" y="650" width="12" height="14" as="geometry" />
        </mxCell>
        <mxCell id="zvRM5CVGM6omRtUVVqOW-296" value="&lt;b&gt;&lt;font style=&quot;font-size: 15px;&quot;&gt;&lt;br&gt;&lt;/font&gt;&lt;/b&gt;&lt;div&gt;&lt;b&gt;&lt;font style=&quot;font-size: 15px;&quot;&gt;1..1&lt;/font&gt;&lt;/b&gt;&lt;/div&gt;" style="text;html=1;align=center;verticalAlign=middle;resizable=0;points=[];autosize=1;strokeColor=none;fillColor=none;" parent="1" vertex="1">
          <mxGeometry x="380" y="560" width="50" height="50" as="geometry" />
        </mxCell>
        <mxCell id="zvRM5CVGM6omRtUVVqOW-297" value="&lt;b&gt;&lt;font style=&quot;font-size: 15px;&quot;&gt;&lt;br&gt;&lt;/font&gt;&lt;/b&gt;&lt;div&gt;&lt;b&gt;&lt;font style=&quot;font-size: 15px;&quot;&gt;0..1&lt;/font&gt;&lt;/b&gt;&lt;/div&gt;" style="text;html=1;align=center;verticalAlign=middle;resizable=0;points=[];autosize=1;strokeColor=none;fillColor=none;" parent="1" vertex="1">
          <mxGeometry x="380" y="640" width="50" height="50" as="geometry" />
        </mxCell>
        <mxCell id="tqqghsH9DW6v7tpCUAz7-31" value="&lt;br&gt;&lt;div&gt;recep&lt;/div&gt;" style="shape=table;startSize=30;container=1;collapsible=1;childLayout=tableLayout;fixedRows=1;rowLines=0;fontStyle=1;align=center;resizeLast=1;html=1;" parent="1" vertex="1">
          <mxGeometry x="365" y="-27" width="180" height="180" as="geometry" />
        </mxCell>
        <mxCell id="tqqghsH9DW6v7tpCUAz7-32" value="" style="shape=tableRow;horizontal=0;startSize=0;swimlaneHead=0;swimlaneBody=0;fillColor=none;collapsible=0;dropTarget=0;points=[[0,0.5],[1,0.5]];portConstraint=eastwest;top=0;left=0;right=0;bottom=1;" parent="tqqghsH9DW6v7tpCUAz7-31" vertex="1">
          <mxGeometry y="30" width="180" height="30" as="geometry" />
        </mxCell>
        <mxCell id="tqqghsH9DW6v7tpCUAz7-33" value="PK" style="shape=partialRectangle;connectable=0;fillColor=none;top=0;left=0;bottom=0;right=0;fontStyle=1;overflow=hidden;whiteSpace=wrap;html=1;" parent="tqqghsH9DW6v7tpCUAz7-32" vertex="1">
          <mxGeometry width="30" height="30" as="geometry">
            <mxRectangle width="30" height="30" as="alternateBounds" />
          </mxGeometry>
        </mxCell>
        <mxCell id="tqqghsH9DW6v7tpCUAz7-34" value="&lt;br&gt;&lt;div&gt;recep_id&lt;/div&gt;&lt;div&gt;&lt;br&gt;&lt;/div&gt;" style="shape=partialRectangle;connectable=0;fillColor=none;top=0;left=0;bottom=0;right=0;align=left;spacingLeft=6;fontStyle=5;overflow=hidden;whiteSpace=wrap;html=1;" parent="tqqghsH9DW6v7tpCUAz7-32" vertex="1">
          <mxGeometry x="30" width="150" height="30" as="geometry">
            <mxRectangle width="150" height="30" as="alternateBounds" />
          </mxGeometry>
        </mxCell>
        <mxCell id="tqqghsH9DW6v7tpCUAz7-35" value="" style="shape=tableRow;horizontal=0;startSize=0;swimlaneHead=0;swimlaneBody=0;fillColor=none;collapsible=0;dropTarget=0;points=[[0,0.5],[1,0.5]];portConstraint=eastwest;top=0;left=0;right=0;bottom=0;" parent="tqqghsH9DW6v7tpCUAz7-31" vertex="1">
          <mxGeometry y="60" width="180" height="30" as="geometry" />
        </mxCell>
        <mxCell id="tqqghsH9DW6v7tpCUAz7-36" value="" style="shape=partialRectangle;connectable=0;fillColor=none;top=0;left=0;bottom=0;right=0;editable=1;overflow=hidden;whiteSpace=wrap;html=1;" parent="tqqghsH9DW6v7tpCUAz7-35" vertex="1">
          <mxGeometry width="30" height="30" as="geometry">
            <mxRectangle width="30" height="30" as="alternateBounds" />
          </mxGeometry>
        </mxCell>
        <mxCell id="tqqghsH9DW6v7tpCUAz7-37" value="&lt;br&gt;&lt;div&gt;name&lt;/div&gt;" style="shape=partialRectangle;connectable=0;fillColor=none;top=0;left=0;bottom=0;right=0;align=left;spacingLeft=6;overflow=hidden;whiteSpace=wrap;html=1;" parent="tqqghsH9DW6v7tpCUAz7-35" vertex="1">
          <mxGeometry x="30" width="150" height="30" as="geometry">
            <mxRectangle width="150" height="30" as="alternateBounds" />
          </mxGeometry>
        </mxCell>
        <mxCell id="tqqghsH9DW6v7tpCUAz7-38" value="" style="shape=tableRow;horizontal=0;startSize=0;swimlaneHead=0;swimlaneBody=0;fillColor=none;collapsible=0;dropTarget=0;points=[[0,0.5],[1,0.5]];portConstraint=eastwest;top=0;left=0;right=0;bottom=0;" parent="tqqghsH9DW6v7tpCUAz7-31" vertex="1">
          <mxGeometry y="90" width="180" height="30" as="geometry" />
        </mxCell>
        <mxCell id="tqqghsH9DW6v7tpCUAz7-39" value="" style="shape=partialRectangle;connectable=0;fillColor=none;top=0;left=0;bottom=0;right=0;editable=1;overflow=hidden;whiteSpace=wrap;html=1;" parent="tqqghsH9DW6v7tpCUAz7-38" vertex="1">
          <mxGeometry width="30" height="30" as="geometry">
            <mxRectangle width="30" height="30" as="alternateBounds" />
          </mxGeometry>
        </mxCell>
        <mxCell id="tqqghsH9DW6v7tpCUAz7-40" value="contact_no" style="shape=partialRectangle;connectable=0;fillColor=none;top=0;left=0;bottom=0;right=0;align=left;spacingLeft=6;overflow=hidden;whiteSpace=wrap;html=1;" parent="tqqghsH9DW6v7tpCUAz7-38" vertex="1">
          <mxGeometry x="30" width="150" height="30" as="geometry">
            <mxRectangle width="150" height="30" as="alternateBounds" />
          </mxGeometry>
        </mxCell>
        <mxCell id="VFXgfJgaNeVea0VMfrzF-1" value="" style="shape=tableRow;horizontal=0;startSize=0;swimlaneHead=0;swimlaneBody=0;fillColor=none;collapsible=0;dropTarget=0;points=[[0,0.5],[1,0.5]];portConstraint=eastwest;top=0;left=0;right=0;bottom=0;" parent="tqqghsH9DW6v7tpCUAz7-31" vertex="1">
          <mxGeometry y="120" width="180" height="30" as="geometry" />
        </mxCell>
        <mxCell id="VFXgfJgaNeVea0VMfrzF-2" value="" style="shape=partialRectangle;connectable=0;fillColor=none;top=0;left=0;bottom=0;right=0;editable=1;overflow=hidden;whiteSpace=wrap;html=1;" parent="VFXgfJgaNeVea0VMfrzF-1" vertex="1">
          <mxGeometry width="30" height="30" as="geometry">
            <mxRectangle width="30" height="30" as="alternateBounds" />
          </mxGeometry>
        </mxCell>
        <mxCell id="VFXgfJgaNeVea0VMfrzF-3" value="email" style="shape=partialRectangle;connectable=0;fillColor=none;top=0;left=0;bottom=0;right=0;align=left;spacingLeft=6;overflow=hidden;whiteSpace=wrap;html=1;" parent="VFXgfJgaNeVea0VMfrzF-1" vertex="1">
          <mxGeometry x="30" width="150" height="30" as="geometry">
            <mxRectangle width="150" height="30" as="alternateBounds" />
          </mxGeometry>
        </mxCell>
        <mxCell id="tqqghsH9DW6v7tpCUAz7-41" value="" style="shape=tableRow;horizontal=0;startSize=0;swimlaneHead=0;swimlaneBody=0;fillColor=none;collapsible=0;dropTarget=0;points=[[0,0.5],[1,0.5]];portConstraint=eastwest;top=0;left=0;right=0;bottom=0;" parent="tqqghsH9DW6v7tpCUAz7-31" vertex="1">
          <mxGeometry y="150" width="180" height="30" as="geometry" />
        </mxCell>
        <mxCell id="tqqghsH9DW6v7tpCUAz7-42" value="" style="shape=partialRectangle;connectable=0;fillColor=none;top=0;left=0;bottom=0;right=0;editable=1;overflow=hidden;whiteSpace=wrap;html=1;" parent="tqqghsH9DW6v7tpCUAz7-41" vertex="1">
          <mxGeometry width="30" height="30" as="geometry">
            <mxRectangle width="30" height="30" as="alternateBounds" />
          </mxGeometry>
        </mxCell>
        <mxCell id="tqqghsH9DW6v7tpCUAz7-43" value="&lt;div&gt;password&lt;/div&gt;" style="shape=partialRectangle;connectable=0;fillColor=none;top=0;left=0;bottom=0;right=0;align=left;spacingLeft=6;overflow=hidden;whiteSpace=wrap;html=1;" parent="tqqghsH9DW6v7tpCUAz7-41" vertex="1">
          <mxGeometry x="30" width="150" height="30" as="geometry">
            <mxRectangle width="150" height="30" as="alternateBounds" />
          </mxGeometry>
        </mxCell>
        <mxCell id="tqqghsH9DW6v7tpCUAz7-97" value="" style="endArrow=none;html=1;rounded=0;exitX=0.083;exitY=0.005;exitDx=0;exitDy=0;exitPerimeter=0;entryX=0.114;entryY=1.074;entryDx=0;entryDy=0;entryPerimeter=0;" parent="1" source="zvRM5CVGM6omRtUVVqOW-31" edge="1">
          <mxGeometry width="50" height="50" relative="1" as="geometry">
            <mxPoint x="371" y="230" as="sourcePoint" />
            <mxPoint x="385.52" y="152.22000000000003" as="targetPoint" />
          </mxGeometry>
        </mxCell>
        <mxCell id="tqqghsH9DW6v7tpCUAz7-98" value="&lt;b&gt;&lt;font style=&quot;font-size: 15px;&quot;&gt;creates&lt;/font&gt;&lt;/b&gt;" style="text;html=1;align=center;verticalAlign=middle;resizable=0;points=[];autosize=1;strokeColor=none;fillColor=none;" parent="1" vertex="1">
          <mxGeometry x="375" y="190" width="80" height="30" as="geometry" />
        </mxCell>
        <mxCell id="tqqghsH9DW6v7tpCUAz7-101" value="" style="triangle;whiteSpace=wrap;html=1;fillColor=#000000;direction=south;" parent="1" vertex="1">
          <mxGeometry x="390" y="220" width="12" height="14" as="geometry" />
        </mxCell>
        <mxCell id="tqqghsH9DW6v7tpCUAz7-102" value="&lt;b&gt;&lt;font style=&quot;font-size: 15px;&quot;&gt;1..1&lt;/font&gt;&lt;/b&gt;" style="text;html=1;align=center;verticalAlign=middle;resizable=0;points=[];autosize=1;strokeColor=none;fillColor=none;" parent="1" vertex="1">
          <mxGeometry x="375" y="150" width="50" height="30" as="geometry" />
        </mxCell>
        <mxCell id="tqqghsH9DW6v7tpCUAz7-104" value="&lt;b&gt;&lt;font style=&quot;font-size: 15px;&quot;&gt;0..*&lt;/font&gt;&lt;/b&gt;" style="text;html=1;align=center;verticalAlign=middle;resizable=0;points=[];autosize=1;strokeColor=none;fillColor=none;" parent="1" vertex="1">
          <mxGeometry x="375" y="248" width="50" height="30" as="geometry" />
        </mxCell>
        <mxCell id="5AH3ZvaqgAqDE3p6LLWE-4" value="&lt;div&gt;&lt;span style=&quot;font-size: 15px;&quot;&gt;&lt;b&gt;&lt;br&gt;&lt;/b&gt;&lt;/span&gt;&lt;/div&gt;&lt;ul&gt;&lt;li&gt;&lt;b&gt;&lt;font style=&quot;font-size: 15px;&quot;&gt;reservation can be booked before check in time,reservation can be cancelled&lt;/font&gt;&lt;/b&gt;&lt;/li&gt;&lt;li&gt;&lt;b&gt;&lt;font style=&quot;font-size: 15px;&quot;&gt;&amp;nbsp;a guest can make multiple reservation&lt;/font&gt;&lt;/b&gt;&lt;/li&gt;&lt;li&gt;&lt;b&gt;&lt;font style=&quot;font-size: 15px;&quot;&gt;more than one room can be reserved in one reservation&lt;/font&gt;&lt;/b&gt;&lt;/li&gt;&lt;li&gt;&lt;span style=&quot;font-size: 15px;&quot;&gt;&lt;b&gt;room types are deluxe standard economy&amp;nbsp;&lt;/b&gt;&lt;/span&gt;&lt;/li&gt;&lt;li&gt;&lt;b&gt;&lt;font style=&quot;font-size: 15px;&quot;&gt;bills are generated at checkout time&lt;/font&gt;&lt;/b&gt;&lt;/li&gt;&lt;/ul&gt;&lt;div&gt;&lt;br&gt;&lt;/div&gt;" style="text;html=1;align=left;verticalAlign=middle;resizable=0;points=[];autosize=1;strokeColor=none;fillColor=none;" parent="1" vertex="1">
          <mxGeometry x="680" y="630" width="610" height="160" as="geometry" />
        </mxCell>
        <mxCell id="9YZFOSbBUc9184XTG0oC-1" value="" style="endArrow=none;html=1;rounded=0;exitX=1;exitY=0;exitDx=0;exitDy=0;exitPerimeter=0;entryX=0;entryY=0;entryDx=0;entryDy=0;entryPerimeter=0;" parent="1" source="zvRM5CVGM6omRtUVVqOW-38" target="zvRM5CVGM6omRtUVVqOW-151" edge="1">
          <mxGeometry width="50" height="50" relative="1" as="geometry">
            <mxPoint x="770" y="420" as="sourcePoint" />
            <mxPoint x="820" y="370" as="targetPoint" />
          </mxGeometry>
        </mxCell>
        <mxCell id="9YZFOSbBUc9184XTG0oC-4" value="" style="triangle;whiteSpace=wrap;html=1;fillColor=#000000;" parent="1" vertex="1">
          <mxGeometry x="820.5" y="347.75" width="19" height="14.5" as="geometry" />
        </mxCell>
        <mxCell id="9YZFOSbBUc9184XTG0oC-5" value="&lt;b&gt;&lt;font style=&quot;font-size: 15px;&quot;&gt;1..*&lt;/font&gt;&lt;/b&gt;" style="text;html=1;align=center;verticalAlign=middle;resizable=0;points=[];autosize=1;strokeColor=none;fillColor=none;" parent="1" vertex="1">
          <mxGeometry x="876" y="338" width="50" height="30" as="geometry" />
        </mxCell>
        <mxCell id="9YZFOSbBUc9184XTG0oC-6" value="&lt;b&gt;&lt;font style=&quot;font-size: 15px;&quot;&gt;0..*&lt;/font&gt;&lt;/b&gt;" style="text;html=1;align=center;verticalAlign=middle;resizable=0;points=[];autosize=1;strokeColor=none;fillColor=none;" parent="1" vertex="1">
          <mxGeometry x="550" y="340" width="50" height="30" as="geometry" />
        </mxCell>
        <mxCell id="5StayREsCHFobOeV2pH2-1" value="&lt;br&gt;&lt;div&gt;&lt;br&gt;&lt;/div&gt;" style="text;html=1;align=center;verticalAlign=middle;resizable=0;points=[];autosize=1;strokeColor=none;fillColor=none;" parent="1" vertex="1">
          <mxGeometry x="430" y="-67" width="20" height="40" as="geometry" />
        </mxCell>
        <mxCell id="5StayREsCHFobOeV2pH2-2" value="&lt;br&gt;&lt;div&gt;room_type&lt;/div&gt;" style="shape=table;startSize=30;container=1;collapsible=1;childLayout=tableLayout;fixedRows=1;rowLines=0;fontStyle=1;align=center;resizeLast=1;html=1;" parent="1" vertex="1">
          <mxGeometry x="1280" y="338" width="180" height="270" as="geometry" />
        </mxCell>
        <mxCell id="5StayREsCHFobOeV2pH2-3" value="" style="shape=tableRow;horizontal=0;startSize=0;swimlaneHead=0;swimlaneBody=0;fillColor=none;collapsible=0;dropTarget=0;points=[[0,0.5],[1,0.5]];portConstraint=eastwest;top=0;left=0;right=0;bottom=1;" parent="5StayREsCHFobOeV2pH2-2" vertex="1">
          <mxGeometry y="30" width="180" height="30" as="geometry" />
        </mxCell>
        <mxCell id="5StayREsCHFobOeV2pH2-4" value="PK" style="shape=partialRectangle;connectable=0;fillColor=none;top=0;left=0;bottom=0;right=0;fontStyle=1;overflow=hidden;whiteSpace=wrap;html=1;" parent="5StayREsCHFobOeV2pH2-3" vertex="1">
          <mxGeometry width="30" height="30" as="geometry">
            <mxRectangle width="30" height="30" as="alternateBounds" />
          </mxGeometry>
        </mxCell>
        <mxCell id="5StayREsCHFobOeV2pH2-5" value="&lt;br&gt;&lt;div&gt;room_type_id&lt;/div&gt;" style="shape=partialRectangle;connectable=0;fillColor=none;top=0;left=0;bottom=0;right=0;align=left;spacingLeft=6;fontStyle=5;overflow=hidden;whiteSpace=wrap;html=1;" parent="5StayREsCHFobOeV2pH2-3" vertex="1">
          <mxGeometry x="30" width="150" height="30" as="geometry">
            <mxRectangle width="150" height="30" as="alternateBounds" />
          </mxGeometry>
        </mxCell>
        <mxCell id="5StayREsCHFobOeV2pH2-6" value="" style="shape=tableRow;horizontal=0;startSize=0;swimlaneHead=0;swimlaneBody=0;fillColor=none;collapsible=0;dropTarget=0;points=[[0,0.5],[1,0.5]];portConstraint=eastwest;top=0;left=0;right=0;bottom=0;" parent="5StayREsCHFobOeV2pH2-2" vertex="1">
          <mxGeometry y="60" width="180" height="30" as="geometry" />
        </mxCell>
        <mxCell id="5StayREsCHFobOeV2pH2-7" value="" style="shape=partialRectangle;connectable=0;fillColor=none;top=0;left=0;bottom=0;right=0;editable=1;overflow=hidden;whiteSpace=wrap;html=1;" parent="5StayREsCHFobOeV2pH2-6" vertex="1">
          <mxGeometry width="30" height="30" as="geometry">
            <mxRectangle width="30" height="30" as="alternateBounds" />
          </mxGeometry>
        </mxCell>
        <mxCell id="5StayREsCHFobOeV2pH2-8" value="type_name" style="shape=partialRectangle;connectable=0;fillColor=none;top=0;left=0;bottom=0;right=0;align=left;spacingLeft=6;overflow=hidden;whiteSpace=wrap;html=1;" parent="5StayREsCHFobOeV2pH2-6" vertex="1">
          <mxGeometry x="30" width="150" height="30" as="geometry">
            <mxRectangle width="150" height="30" as="alternateBounds" />
          </mxGeometry>
        </mxCell>
        <mxCell id="5StayREsCHFobOeV2pH2-9" value="" style="shape=tableRow;horizontal=0;startSize=0;swimlaneHead=0;swimlaneBody=0;fillColor=none;collapsible=0;dropTarget=0;points=[[0,0.5],[1,0.5]];portConstraint=eastwest;top=0;left=0;right=0;bottom=0;" parent="5StayREsCHFobOeV2pH2-2" vertex="1">
          <mxGeometry y="90" width="180" height="30" as="geometry" />
        </mxCell>
        <mxCell id="5StayREsCHFobOeV2pH2-10" value="" style="shape=partialRectangle;connectable=0;fillColor=none;top=0;left=0;bottom=0;right=0;editable=1;overflow=hidden;whiteSpace=wrap;html=1;" parent="5StayREsCHFobOeV2pH2-9" vertex="1">
          <mxGeometry width="30" height="30" as="geometry">
            <mxRectangle width="30" height="30" as="alternateBounds" />
          </mxGeometry>
        </mxCell>
        <mxCell id="5StayREsCHFobOeV2pH2-11" value="price_per_night" style="shape=partialRectangle;connectable=0;fillColor=none;top=0;left=0;bottom=0;right=0;align=left;spacingLeft=6;overflow=hidden;whiteSpace=wrap;html=1;" parent="5StayREsCHFobOeV2pH2-9" vertex="1">
          <mxGeometry x="30" width="150" height="30" as="geometry">
            <mxRectangle width="150" height="30" as="alternateBounds" />
          </mxGeometry>
        </mxCell>
        <mxCell id="5StayREsCHFobOeV2pH2-12" value="" style="shape=tableRow;horizontal=0;startSize=0;swimlaneHead=0;swimlaneBody=0;fillColor=none;collapsible=0;dropTarget=0;points=[[0,0.5],[1,0.5]];portConstraint=eastwest;top=0;left=0;right=0;bottom=0;" parent="5StayREsCHFobOeV2pH2-2" vertex="1">
          <mxGeometry y="120" width="180" height="30" as="geometry" />
        </mxCell>
        <mxCell id="5StayREsCHFobOeV2pH2-13" value="" style="shape=partialRectangle;connectable=0;fillColor=none;top=0;left=0;bottom=0;right=0;editable=1;overflow=hidden;whiteSpace=wrap;html=1;" parent="5StayREsCHFobOeV2pH2-12" vertex="1">
          <mxGeometry width="30" height="30" as="geometry">
            <mxRectangle width="30" height="30" as="alternateBounds" />
          </mxGeometry>
        </mxCell>
        <mxCell id="5StayREsCHFobOeV2pH2-14" value="max_occupancy" style="shape=partialRectangle;connectable=0;fillColor=none;top=0;left=0;bottom=0;right=0;align=left;spacingLeft=6;overflow=hidden;whiteSpace=wrap;html=1;" parent="5StayREsCHFobOeV2pH2-12" vertex="1">
          <mxGeometry x="30" width="150" height="30" as="geometry">
            <mxRectangle width="150" height="30" as="alternateBounds" />
          </mxGeometry>
        </mxCell>
        <mxCell id="6ttmElhImNZ3oVbnVp4--1" value="" style="shape=tableRow;horizontal=0;startSize=0;swimlaneHead=0;swimlaneBody=0;fillColor=none;collapsible=0;dropTarget=0;points=[[0,0.5],[1,0.5]];portConstraint=eastwest;top=0;left=0;right=0;bottom=0;" parent="5StayREsCHFobOeV2pH2-2" vertex="1">
          <mxGeometry y="150" width="180" height="30" as="geometry" />
        </mxCell>
        <mxCell id="6ttmElhImNZ3oVbnVp4--2" value="" style="shape=partialRectangle;connectable=0;fillColor=none;top=0;left=0;bottom=0;right=0;editable=1;overflow=hidden;whiteSpace=wrap;html=1;" parent="6ttmElhImNZ3oVbnVp4--1" vertex="1">
          <mxGeometry width="30" height="30" as="geometry">
            <mxRectangle width="30" height="30" as="alternateBounds" />
          </mxGeometry>
        </mxCell>
        <mxCell id="6ttmElhImNZ3oVbnVp4--3" value="&lt;br&gt;&lt;div&gt;bed_type&lt;/div&gt;" style="shape=partialRectangle;connectable=0;fillColor=none;top=0;left=0;bottom=0;right=0;align=left;spacingLeft=6;overflow=hidden;whiteSpace=wrap;html=1;" parent="6ttmElhImNZ3oVbnVp4--1" vertex="1">
          <mxGeometry x="30" width="150" height="30" as="geometry">
            <mxRectangle width="150" height="30" as="alternateBounds" />
          </mxGeometry>
        </mxCell>
        <mxCell id="6ttmElhImNZ3oVbnVp4--4" value="" style="shape=tableRow;horizontal=0;startSize=0;swimlaneHead=0;swimlaneBody=0;fillColor=none;collapsible=0;dropTarget=0;points=[[0,0.5],[1,0.5]];portConstraint=eastwest;top=0;left=0;right=0;bottom=0;" parent="5StayREsCHFobOeV2pH2-2" vertex="1">
          <mxGeometry y="180" width="180" height="30" as="geometry" />
        </mxCell>
        <mxCell id="6ttmElhImNZ3oVbnVp4--5" value="" style="shape=partialRectangle;connectable=0;fillColor=none;top=0;left=0;bottom=0;right=0;editable=1;overflow=hidden;whiteSpace=wrap;html=1;" parent="6ttmElhImNZ3oVbnVp4--4" vertex="1">
          <mxGeometry width="30" height="30" as="geometry">
            <mxRectangle width="30" height="30" as="alternateBounds" />
          </mxGeometry>
        </mxCell>
        <mxCell id="6ttmElhImNZ3oVbnVp4--6" value="has_ac" style="shape=partialRectangle;connectable=0;fillColor=none;top=0;left=0;bottom=0;right=0;align=left;spacingLeft=6;overflow=hidden;whiteSpace=wrap;html=1;" parent="6ttmElhImNZ3oVbnVp4--4" vertex="1">
          <mxGeometry x="30" width="150" height="30" as="geometry">
            <mxRectangle width="150" height="30" as="alternateBounds" />
          </mxGeometry>
        </mxCell>
        <mxCell id="6ttmElhImNZ3oVbnVp4--7" value="" style="shape=tableRow;horizontal=0;startSize=0;swimlaneHead=0;swimlaneBody=0;fillColor=none;collapsible=0;dropTarget=0;points=[[0,0.5],[1,0.5]];portConstraint=eastwest;top=0;left=0;right=0;bottom=0;" parent="5StayREsCHFobOeV2pH2-2" vertex="1">
          <mxGeometry y="210" width="180" height="30" as="geometry" />
        </mxCell>
        <mxCell id="6ttmElhImNZ3oVbnVp4--8" value="" style="shape=partialRectangle;connectable=0;fillColor=none;top=0;left=0;bottom=0;right=0;editable=1;overflow=hidden;whiteSpace=wrap;html=1;" parent="6ttmElhImNZ3oVbnVp4--7" vertex="1">
          <mxGeometry width="30" height="30" as="geometry">
            <mxRectangle width="30" height="30" as="alternateBounds" />
          </mxGeometry>
        </mxCell>
        <mxCell id="6ttmElhImNZ3oVbnVp4--9" value="has_wifi" style="shape=partialRectangle;connectable=0;fillColor=none;top=0;left=0;bottom=0;right=0;align=left;spacingLeft=6;overflow=hidden;whiteSpace=wrap;html=1;" parent="6ttmElhImNZ3oVbnVp4--7" vertex="1">
          <mxGeometry x="30" width="150" height="30" as="geometry">
            <mxRectangle width="150" height="30" as="alternateBounds" />
          </mxGeometry>
        </mxCell>
        <mxCell id="ol91lg5TnHDOTvhpaFmT-18" value="" style="shape=tableRow;horizontal=0;startSize=0;swimlaneHead=0;swimlaneBody=0;fillColor=none;collapsible=0;dropTarget=0;points=[[0,0.5],[1,0.5]];portConstraint=eastwest;top=0;left=0;right=0;bottom=0;" parent="5StayREsCHFobOeV2pH2-2" vertex="1">
          <mxGeometry y="240" width="180" height="30" as="geometry" />
        </mxCell>
        <mxCell id="ol91lg5TnHDOTvhpaFmT-19" value="" style="shape=partialRectangle;connectable=0;fillColor=none;top=0;left=0;bottom=0;right=0;editable=1;overflow=hidden;whiteSpace=wrap;html=1;" parent="ol91lg5TnHDOTvhpaFmT-18" vertex="1">
          <mxGeometry width="30" height="30" as="geometry">
            <mxRectangle width="30" height="30" as="alternateBounds" />
          </mxGeometry>
        </mxCell>
        <mxCell id="ol91lg5TnHDOTvhpaFmT-20" value="has_tv" style="shape=partialRectangle;connectable=0;fillColor=none;top=0;left=0;bottom=0;right=0;align=left;spacingLeft=6;overflow=hidden;whiteSpace=wrap;html=1;" parent="ol91lg5TnHDOTvhpaFmT-18" vertex="1">
          <mxGeometry x="30" width="150" height="30" as="geometry">
            <mxRectangle width="150" height="30" as="alternateBounds" />
          </mxGeometry>
        </mxCell>
        <mxCell id="Tc0Fv1LPMmOLNYlFuVox-1" value="" style="endArrow=none;html=1;rounded=0;entryX=-0.02;entryY=0.747;entryDx=0;entryDy=0;entryPerimeter=0;" parent="1" target="5StayREsCHFobOeV2pH2-3" edge="1">
          <mxGeometry width="50" height="50" relative="1" as="geometry">
            <mxPoint x="1106" y="390" as="sourcePoint" />
            <mxPoint x="1156" y="340" as="targetPoint" />
          </mxGeometry>
        </mxCell>
        <mxCell id="Tc0Fv1LPMmOLNYlFuVox-2" value="&lt;br&gt;&lt;div&gt;&lt;b&gt;&lt;font style=&quot;font-size: 16px;&quot;&gt;has&lt;/font&gt;&lt;/b&gt;&lt;/div&gt;" style="text;html=1;align=center;verticalAlign=middle;resizable=0;points=[];autosize=1;strokeColor=none;fillColor=none;" parent="1" vertex="1">
          <mxGeometry x="1156" y="340" width="50" height="50" as="geometry" />
        </mxCell>
        <mxCell id="Tc0Fv1LPMmOLNYlFuVox-3" value="&lt;b&gt;&lt;font style=&quot;font-size: 15px;&quot;&gt;&lt;br&gt;&lt;/font&gt;&lt;/b&gt;&lt;div&gt;&lt;b&gt;&lt;font style=&quot;font-size: 15px;&quot;&gt;0..*&lt;/font&gt;&lt;/b&gt;&lt;/div&gt;" style="text;html=1;align=center;verticalAlign=middle;resizable=0;points=[];autosize=1;strokeColor=none;fillColor=none;" parent="1" vertex="1">
          <mxGeometry x="1106" y="347.75" width="50" height="50" as="geometry" />
        </mxCell>
        <mxCell id="Tc0Fv1LPMmOLNYlFuVox-5" value="&lt;b&gt;&lt;font style=&quot;font-size: 15px;&quot;&gt;&lt;br&gt;&lt;/font&gt;&lt;/b&gt;&lt;div&gt;&lt;b&gt;&lt;font style=&quot;font-size: 15px;&quot;&gt;1..1&lt;/font&gt;&lt;/b&gt;&lt;/div&gt;" style="text;html=1;align=center;verticalAlign=middle;resizable=0;points=[];autosize=1;strokeColor=none;fillColor=none;" parent="1" vertex="1">
          <mxGeometry x="1230" y="347.75" width="50" height="50" as="geometry" />
        </mxCell>
        <mxCell id="Tc0Fv1LPMmOLNYlFuVox-6" value="" style="triangle;whiteSpace=wrap;html=1;fillColor=#000000;" parent="1" vertex="1">
          <mxGeometry x="1200" y="365.5" width="19" height="14.5" as="geometry" />
        </mxCell>
        <mxCell id="8KiMk81MHaNDtGIfnrIc-1" value="&lt;div style=&quot;&quot;&gt;&lt;div&gt;&lt;br&gt;&lt;/div&gt;&lt;ul&gt;&lt;li&gt;reserv_status has values booked,checked-in,completed,cancelled&lt;/li&gt;&lt;li&gt;payment_status value has values pending paid&lt;/li&gt;&lt;/ul&gt;&lt;/div&gt;" style="text;html=1;align=left;verticalAlign=middle;resizable=0;points=[];autosize=1;strokeColor=none;fillColor=none;" parent="1" vertex="1">
          <mxGeometry x="726" y="915" width="410" height="80" as="geometry" />
        </mxCell>
        <mxCell id="v1pvo4C1z5peBK8zLEwP-2" value="" style="shape=image;verticalLabelPosition=bottom;labelBackgroundColor=default;verticalAlign=top;aspect=fixed;imageAspect=0;image=data:image/png,iVBORw0KGgoAAAANSUhEUgAAAykAAAB/CAYAAADrVY0dAAAAAXNSR0IArs4c6QAAAARnQU1BAACxjwv8YQUAAAAJcEhZcwAADsMAAA7DAcdvqGQAAJVPSURBVHhe7J11eN3V/fhf1yXXk9y4e5qkbeqlQps6pbjD2BgwhSn82NjYxgy279gGM2DD3dtSd2/T1JPG3T031/33R6RJmuJslc/ree6TJ0c+cj7H3uec9/st2rp1a3DBggUICAgI/Lfo7u5mx44dY4MFBAQEBAQEBAAQbd68OTh37tyx4QICAgICAgICAgICAv8TRO+++24wPT19bLiAgICAgICAgICAgMD/BNHatWuD+fn5Y8MvGiQSCWq1emywwHlEd3c3GzZsYMWKFZhMprHRAl8AFRUV1NTUsGzZsrFRAhch+/btQ6lUMmXKlLFRAhc5bW1t7N69mxUrVqDRaMZGC5yDXbt2odfrmTRp0tioS4pTp07R1dWFoAbw6dmxYwdhYWHk5uaOjbrosdvtrF+/nvz8fMxm89joz4xo/fr1wRkzZowNv2iQSCTo9Xrcbjd+v39stMB5QHt7Oy+99BL33nsvoaGh+Hy+sUkEPifHjh2jrKyMr3/967hcLgKBwNgkAhcR69atQ6fTsXjxYlwu19hogYuY+vp61qxZw7333ktISIjQn35CVq9eTUREBPPnz8ftdo+NvmQ4cOAA7e3t3HLLLbhcLoLB4NgkAufg3XffJT4+njlz5lxydai/v5+XXnqJJUuWEB8fPzb6M3PJCCn9/f1nddadnZ243W7UarWwgv8/pKOjgzfffJN7770XnU53VuPu6+vDZrMhlUqJjIwcFSfwyTh58iTV1dV8/etfx2KxjBLYg8HgcFvQaDQYjcZReQUuPDZv3ozRaKSgoID+/v5RcW63m66uLgKBACaTiZCQkFHxAhc2jY2NbNy4kXvvvReZTIbH4xkV39PTg8PhQC6Xf6Ernhc669evJzo6mrlz52K1WkfFuVwuuru7CQQChIaGXtSnMwoLC+np6eHmm2+mv79/1IKW3++ns7MTr9eLTqdDr9ePynups3btWhITE5k1axY2m21U3Mg6FBYWhkqlGhV/oWO1WnnzzTe/cCFFPDbgUiEYDFJcXMy+ffuoqKgQVgvOU4LBIDU1Nezfv5/jx48L3+lLIBgMcvLkSfbv309VVZVQxhc5VquVgwcPsnfvXjo6OsZGC1zEBINBKisr2b9/P8XFxUJb/4T09fUNt5nu7u6x0ZcMXq+Xo0ePsm/fPurr64X68yno6enh4MGD7Nmzh56enrHRAufgkhRSgsEgPp8Pt9uNy+XC6/UiEonGJhM4D/D7/cPfyePxCN/pC2aoLbhcLpxOJz6fTyjji5hAIIDH48HpdArH/i5B/H7/cFsX+tNPRiAQwOv14nQ6cTqdl2ybCQaDeL1eXC4XLpdLGCs+BSPrkHCE7tNxSQopdrud/fv3ExcXx6RJkxCJRBw4cEDQWTkPOXHiBCqVivz8fMLDw9myZQsWi0Vo5F8QVquVAwcOkJyczKRJk/D7/RQWFl6yA/HFTktLC/X19UyfPp3c3FwaGxspLy8XvvclgM/n48iRIxiNRvLz89HpdOzYsQO73S70px9BY2Mjzc3NTJ8+nby8PGpra6msrLzk2kxPTw/Hjx8nOzubiRMnYrPZOHbs2CVXDp+F+vp62tramDZtGrm5uVRWVlJdXS2U3SfgkhRSvF4vLS0t6HQ6YmJiUCgUdHZ2jk0mcB7Q0dGBTCYjJiYGg8FAS0sLXq93bDKBz4jH46GlpQWj0UhMTAxSqZTOzk5hhewixWazYbFYiI6OJjY2FrfbjcViEb73JUAgEKCtrQ2lUkl0dDRarZa2tjb8fr/w/T8Cq9WKzWYjOjqamJgYHA4HVqv1kiszl8tFR0cHYWFhxMTEIBKJ6O7uvuTK4bNgtVqx2+3D/a7dbsdmswll9wm45BTn7XY7LS0tVFVVMXXqVJRKJU1NTTQ1NZGWlkZUVBQKhWL0RZzNVJ2uoa6pB/twoI7ozEwSE6MIH5Hc3VVFQ10dp5vPpAyJziQhMZG0EQndnVXU19dROl66UMDZxPHDNbRLI4hISGRSnG44nbXpJHWtPTS79MTTSGN/ENc4BlxCQg2gMCGWGpk+KRa1CMTuTtrq26hrsBOeF07nqWr6bE4GVNXlQDS589OIUtmx1NdTWtrMaLVbBSqNgZTckXm1hOjCyZ2mpuFwNd39Q9cbIDp3PslRBkLPoSc2nuK8x+Ohvb2dqqoqEhMTMZvNdHd3c+LECVJTU4mLixtjXtNJZ2UJdfXNtJwp0mGkCjnayHCsDh1pyZEkROpQBNwEHU0cL+xEag4hGHTRXdMy4n3DiEhMID0nDKOzmeOF1bRbR76bCNARkxKKPOjC0mZHlDKNyTEqQhRi8PZj7e3keIWIzEkxGDUKpHhxWTtpPl5ENSkkpcURP/wsjRwrrKFDEU10QgJ5sdrhO/U3HqOuzUaPJJqpaUHKDlfTZXWd/SzZmSTGRxI2pgqPpzhvs9lobm6mtraW6dOnI5VKaWxspK2tjdTUVKKiopDL5SOuEgRnExXFtdS39OKAwftGkTI5hYQoCcHOBo4frqEfGNiXVKLWR5AybRKxKpB7O2ipraO8vJX+kXnjTWi9dgLdlew61Uq/Y1DZV6FFHD2B+XEOWisbaWgduu8QIYRGmQgNldFZPPK+OrSmOHLmpGByNVF9qvZT5FUSYogkeerE4WdurqmjptmJOHkqk2NVqOVi8Fqw9HRRXAUZGdBe00RLax8OlIglUeTOTydSq0RiaaajoYKimjM1SxkaT2RCIjmGHo6XgTnBTIRZy0BpD5RzeY2D/p5uJL5OGkc3QgBEYgm6lOlkx5kwa6Wj4sZTnO/u7qahoQGXy0V+fj5Op5OysjKCwSBJSUlnG6XwO/HbmzhWWE2XOo7YxHhyos/USUv9EWo7XPQrkpiSF40KEOOmr6mahtoWGiQpTJ8Ug0ktR+ropKu5hYMVYnLnpxOhUaDEga2rm5pDfYTNT8ekUSDpa6a9oZwjtWcUl5VhCUQlZZIXrRwOw9FJV3MN+063nQnTRxMWl8plKYOGHyz1VNU2UFI/4vx3eBqpMTpiFG5O14jJnByLTiVDysD7+uwtHC+DiCjwWruoq2zjzJOEE52aSOqEaM6Ylhh631YaJclMnxyLUSVD6u2jr62BUyeaIGUamXFGwjXS4XscK4OopAjM4RrkHhveroF6b3cNLsCo9MgiM5kf1kVphwyZPoyMpFCUwQA4myg92YFLFUpERhIji4VzKM67XC7a2tqoqqoiIyMDo9FIR0cHZWVlpKamEhsbe7YyuKudxuo6KqtGlgHoY9KIS0wkXtrE8cJqupwezqjmiwEd8RlhiJ1Wuhvaz8obn5pBQoiVpmOF1HY7sYzW6wdApdci1Ybi8uiZPjkGg1KG1NtLb2srp4t7Cc8Nx1LfQl+3ZbBNS4Ao0qenEhcawNvWwKljdViAM2vVMqRyEynTJxGnVxIyusmMqzjf1dVFQ0MDXq+XSZMm4XA4OH36NFKplMTERCIiIkZfxO/AY23leDnEpEQSHhYy0KaDfnA2cbrKh0xnJC7RhJIg4KTt9HHqukX4jYlMzolCNdir4umlp7WeU8fr6R98D5U5iZjEdCZEDX10F70NVdTXd9AqG6h/BoUUydDzBHzQU8Gh0mbaegZ7P4kconKYkWomUj9moDiH4nx/fz9NTU20trYyffp0gsEgtbW19Pb2Do8VEsnwXYfft6TKh0JvJDbBxHA1dbVR32TH4laTOmHofV301FfS0NBJm3yg39APvYffgdvSyPHCanrcXjyAXBuOKTmHyaZuKusCKAwmYuONKIM+cDZTcqwDry6CyLR4IpUBoIfaQ10E1EHQumk6MVSmZmKTDRhGhQ2hRq6IIHe6mo7SBrq6rDhRI1fFkDsvjXCljLGlN57ifGdn57D+Tm5uLk6nk5KSEuRy+fDcZhQ+O25rG8fKID4jijCTerAO+cDZRHGlH6Vx8H0H61Br8THqeiUQmsjE7MgRdaiHruZ6Sk42nKlDEfEYtSq0XeVU94NvnM0cbUwMMnQY1DpShq/noqeukV6rF2lKNrEqkIyQsb4sxflLTkipra2luLiYSZMmYTQa8fv92O12Ojo6OHnyJCtWrCAsLGzUNYLN7/H3373GWxtPY9ErBxtONNNu/BpX3biUgjQNCsBn76Zm98u8v3Y9rx3sGuwo3Bgm38zSlTfy9SUphIVIB9LtGkx3aGS6W1h25Q3cNU9PaN8HfP+eF9mlnM3CW27l1zdPGehUfXaOvf0Ir2w4wbaefL4Sto2NVUG6bC6cDi92txhDaAhSIGZyNn5NEgQT+e3v7yJDJULRtoUNb27ntXU9rHhkEht++io1XRacahnioBZcU7j9n/ewIqmJqg/e589PbKNz8HoDhBIRn8Vt/28Ghb97hoMlLXSJ08meNJeHHtfzn7tfobStH5dKhpgA+OxM/OrfuWX5LC5L1RIiG77QMOMJKT09PWzZsoWJEycOd4B2u53+/n5OnDjBxIkTSUtLG75GMNhG4Qt/4d33N7O1aeC+3X2gCFGiVsnQGPWkLJhBSXEIt96+khuWTCLW346n6hV+8KNyzPNjCLrb2PvijjPv681g0oorueH+mSx0buQHd7/C0Xbr4Lsx2A2kseSWbOTWJg5/WIPi9t/z61smkBmhRmYroaxoNz/8PxEPPXUdk1PC0QZ6aDm9k1d//CPe5CZuu/82bl6aQ5SvA1/DO9x/94vs013Osttu4ZHrJw9/86LXH+KVzfUUhyznnz8M8Njdr1LSefazLL3v21x79VymGUev0IwnpFRWVlJZWUleXh5GoxGfz4fNZqO9vZ2SkhJWrlw52tJXMECw+R2e+OVrfLCzgn6dEglicE9h2Y9v5apFatTH1vLjb71OV2gIAakYUVBHWPw0lj/wEDdM1hPpPszON17nb09t4HC/GH3oldz1mzu4elkqUa1ltOx6mftfOUJLlx0JENDHEZx6F6/c2Mn6f63lw12Vg/cdIo7J87PImSBj4y/eoDM0hKBUjMgfS0z6Am77650scm/kud+8ydqz8saTPz+TCWPzBnWEJ85g+Y8f5IbJBiJsu/jw+Vd5+p1m1Lf9ht/cMoHUcBUy60mKC/fxkyfhoYc1HHr9Az5cf5Jqr5mw6FX85JW7mBMlw3tsPdtWv8oTW1oH21EAXfZSLlt2FT+ZeoIfPAYFdyxk8cJ0QkUiCPoINr3DH55poqakBJPkBJuqAb8dS38ApHI0WgUymYK02//E/SsnMitptIWu8YSUgwcP4vV6SU9PR6/XD68I19XV4XQ6z/ah42rBUf0237v7RQ6Zl3HVHTfz0DV5hEiC4LNT+PIPeXFbF7VRd/KPP6wiRiRC6m/iyLvP8+pzG9mgvIm//vl2ZiaY0Lcd4vCG9XzrSTv3vPwDVmRFEeUrp3zffl58qIeCt+9iUqQE95F1bF3zKn/Z2jZYVl606QuZvvwufnztBEJDJIjcFvrLdrN70wf85K3jKAZrvy9uNpOW3srT35qF1N5FT9EHvLJ6M8/vqh4U/sCbfT23Lk2kINzC756R89BT15ETY0DDwGKUrWYN9z8Oy1ZCb0URb/x7H90m9WB/kM20667mhvuWc3loyEA98jVy+J3neO2FLWxWD7zv9Dgj+v7jHNvyBj95cA2y2x7jvlvnMC/ThNI9cI/7HoMVdy9mwcxIlM0l1O18lftfOUJ3n3Og3huTkU+9jVcKqvjbVg+q9Fncc8cCUqUevDUv8/hvj9MbN4cV991EgXl0Wx9PSGlvb2fv3r1MnDgRs9mMSCTCZrPR19fHyZMnmTFjBomJiaOuE2zfzFtPv86/nj9At3GwDPxOYi+7ncVXX89t5vX84OuvUOb04lZKB/shKZDGlXdl466t4tB7Y/LOuJ4FN36dmyfaOfDYj3jraAcVvR48bjd9VhH60BDkEhERGcmoYjNpbjbx29/fxbRYA9qeQxRtWs/v/tTAil9M5MiLmzldUo9Vo0CCDNxTuOoXX+HKmQG8+1fz8x+/T2doCEhEAxM2tKh0edz+p1+wMjuMuDGLZuMJKXv37kUkEpGWloZOp8PhcNDf309tbS1+v59FixaNvoijgd7Kddz/OFz7naXMn52ESSQCv5Ng8zs8+ncbhux8bvrKdCJFfoLealb/9he8ftCPf+ot/OYX15AiFSETeXA0HKJw/fv85R87aZGCDw+6idex4Jp7+cWqGACCvgYOvv4Mr726hz2Gm/nrn28jP0KHVgxBnxtPbxMde17iF28coKiqa+A7yDW4ptzLE99aREFOJGOH5PGElJKSEpqbm8nJycFoNOJ2u7HZbLS0tFBXV8fKlStHC7l+B8Gmd/jV3+2Ycqdy4+1TiRzcNQi2beCVt+s42ZnAd3+1nFiRCLGvgQOv/ovXXt/PftPN/OWJ25hs1qIVe/H0VNG4/x1++/hGKmxOHCIfqrhJpF3xAE8sOMbf/mHFNGkq13xlOtF+O77qV3j0ob30ZS9j6bdvY2W0h6BvH0/fVUQgWYo2p4/1v3qdg32g0Bdw7R3ppEa38PrDa+gMDUEkHqov0RhC5/Dj/4vm4JNvsGNXJY2BOOLTr+Ynr9zFzDDNiMWKAcYTUnbv3o1MJiMlJQWdTofdbsdqtVJdXY1YLD7bH429lo6yjdz/GNz2wArmTE8YuI/PRrD5HX7+pJOoKdO4/pYpROAj6KvmvV8+zOtHZMhm3cIvf7qKFJkIKR4cdfvZ/+EHPPXMblqk4MeDbvIKshJimVj+Aq9UgsPtwGb34wlI0RlUSIGkJQXIbVGkhKfwlZ+uIlkmQuKrZ99LH3Cs0k3UfQ9wZaQIxYizWF+WkDJmLeHiJxgMEggERp0FFIvFY1aMxyFqHvPv/iq3fPMyokUiaF3PC0+WsfffIsyPXcMUkYjO7f/HP7YGsSd/n9d/N5toAI7y4a+fY9fzT/KY6GH+cFU0ndv/yN+3iHCkfp/Xf392usc93+DxKUDyHHIbW9DWH2BrRz6rokXQuY1D9Q7KuhKZnDCZ5Y//hDuCImRd+9m6tYy1RaF8//FVxIhFKKUSWo+8y5Htb/DW4a/xnSkiVDWV9ClUGG75GtdFH+NgxvV89f6ZLFqSSaitjeCRZ7j19e1I58swGbJJXDqDPz2+imiRaHCgFyOWSFCopFz9f0H++UoHFk0Wd3w9h6T+D3kj+Qbu+vZMChZnEurpJti6mp//4BHe6/8ezltv5qr0T7696ff7CQQCw+elRSIRcrkcsfjsU4oikZkptz5CznUP8VNXF8GWNfy/v8CUlZexaFEGYWIRYomEw3+/lhNdyRypm4TZaKXl0G68V3yXKbl2AnWhNC+fzRO/v5IokQh5xVre2lXDX/7PQcZ3RHiTb+Tr982ioCCDMwarJchsB9myuZCTYZC463F2z/gjCm0S6aOecBB7G9bORvawgnwq8fS2UtOXQ5QGEIkgeR4TW5tR1x9ie+ckrowKEuzYwoF6D5XdUSSFACIxJN/I3d+fzcKF6aOeRa5SIpd/sjIOBoP4/f5R59ElEgky2dhhawwxC1n8rW9w49dnERn0EzzyLI9sKeL1Xh2rciOQ5n6X3z1+JRMSTGisZVTu38dv7/orcWu+zZz0qcy7XoY+JpGf/1PC9x+/lilZUciqtrDz7Vf44cvR/OD1/3B5mplIoL+pmWMvvkwHUXRGL2TJt7/FDXfN5Myavxipq4LKE4fYNvG7/P6xVUyIN6JpLuTY/t3c88MPiLjfg+NceZ0VVJ4cyPvY46uYEGckpL+U8n37eezrTxG35ltcZgiCKQmlSUL87v9jx8w/IguJI3XoMiIJRCzmjh+aiEorZ3t5JPf9+mqStUoc+/7Om5uq2O6/g1e2LSVKJEJGF6cLq6k5VUJzEM51eFEkUpO44HZuuvPP/D+/j2DrGp56sQ+iJnDjV2cQKRIhUYSgko1YwfwIhvq9kd9bKpUilX7EMCCWQsrlTO6uQ1ZfxK7OXFZE+Ai2b2JPXYC6nggSo0ak76mksV9CE1ksCe6lsuNaUs0m9JFTyCqQ8I/+3/F0YRNZGgO07KXsyCYkv3qJvHAlokNP8sbmOnZzJ69sW0K0SISUUvY9/wZr//1Lfiz+K4+vikJ27AWef+Uk23on8Ydtf2KKSIQKaDxwiIbaUxz2TiJ646M8/ryXQP6N/H37YiYOPl7pu6uxUEdpcOz0YhxCJ5F9zSK+8ciygWc5/S4v7Kzgb0+FkP6LgTBJbyWN/TKayWRxcB8VHdeREmZEDxAShjj1cuKOv0Jxvglj1GVMG7PrYS3fyp633+Hn78XzgzdeZl6ciXCgr7aOk++8T1PePSxr+hX1TthVtoDkLB8dRwtxTllAxsTLmRf26dr60PcXiUTD495HHjkJyyfn2qXc+7OBuivt3M6aTW2c2LqH1tsV+NJu5747L2fOrCQMMCguipFZd/PBah32a5dx78+WnMn74rus//MjOH7yHHf/9C0WSwP4+05y4lART7yu4PuPryLDrEUjkdBbs5+iV37MvpIbiFIbiGtuoNtmQ/H1+1mRcoy2tKWkLJ7A1bdOJcLrIHjkWX64+SDvdIZwWXw82unf56ePryI9XMPA9FmESCRFEaJC/smaDMFgcPg3hEwmQyKRfH4dVr8X2o9S4kpBRgMprlMUtV1DXBRIJRUc+mAfe3apWfHqNlZGi1BLSti1p5+2ji5gQEihp5x6q5J2Urk8sJ+S9htI1INWDa7WEsref5xvPhPJql//mvsXZJAIeGx2jv77eaR000wko0XT8RnqO0bOmyQSyUf3HZ+GnjLqrGo6SGG+/8DAe+hAq26m+ugBXn+kkrw/vcIPM43Equopr2hi3cZOJGGRRHa04u+00A1Eejy0HTmAS9uDRQGd3UCkH9qaaTNrCEuezOWLjMyNMPDAX+Da7yxnfnYvNQePYpz1Q37x+CpSjGoG5FcxIrEMlVrM/Ic1xKbXcbovkXseWk6yVnlmZ+hjGK/fHapDn1sXzO+BtiJOudJR0Ui8s5ij7auIjwKJuJx97+zjQJGRVa8N1CGF+BTbdtro6TZzxw++wi0BCLZt5vX3m6iwJvD1Hy8c6OtkvRx9fTUl1SUcGbpedym1VjmtqlSuiADp2dOwL4X/0m3ODyoqKigtLcXlclFeXo7b7UYqlQ5LtT6fjwMHDtDQ0DA2K4hlyJQh6AwG9AYD+qQ4zEolOqcXP06CwWPsfK8LvWkCC5fOJMVgwGAwYDBMZfEtK5gzN57+w4dpCRxl87tdGMImsHDJOOnmxGMpKqY1GMQjjiY1WYVG28/h4m4IQvmO93AHPRiS0pGKpcg1enR6A3q9hhC1Crlcjc6gR28woNNoSUzPImvyTCpf/5Cm7oPs3+ulrymOJYtjUYpBJFGgDNGi0+sxREZgmDOD/KY+FJ399IokiOVqtPqBdx54Th06bQgKqYIQjRKFQoVSqUKjUQysyEgUKNVa9Ho9hrA4jOk38t0HryVWZKWm8CRdn6BRtrS0cPjwYYLBIHV1dVgsFiQSCV6vl9LSUux2O6dOnaKkpGRELjFShZoQnQGDXodeq0IuU6EOGXgWvU6PNiSEKYuWI+q0U3t4B1WdNXzwbDTTJieRnqxFKpEikYegHfrGEzJJ0pnILGuhGfCOLKvh8tCiVsiQinWYwhK4elUYW4oqKasb30ylo72FroYGvLOvZ1JqF5bOOirrh87yiEASQ1qqEqW6nyMl3QQDQcq2vY1XEkCfmHpmF0CiQHWuZ/mIOccQpaWlVFRU4HA4KC8vx+v1IpFIsFgs1NbW4vV62bdvH83NzWOzDrYFzcC9jUYM0yYxwQnmhi46RGJEUiUhuoE6aIiKwBQTQZTViSgQICCWIVcqCAlRIZUq0ejUKGU2Opu6aO/WcfXv7mVBegJJg+8UnZLM3Hu+yiSTCaNEjkw1eN8R9VGjUiAXixFJVYTodAP3TUkkOiWZmcdqsTo9OMTnyKuWn8mrHXzm6AhM0eaBZ/YHBrb/xXpCw+O54goTGw5VUNEw0oSkCMRylColKpUKuVyFVq9ALi7j6LYWnNY4ll+/kDSjkTCDAYMhnrxp01m0agZm0UetFImQyBQotYPPrFWjVKhQDr2HXo9WKUU6cs99HPx+P4cOHaKtrW34yNfQBKO1tZXW1la6urrYunUrdvvYs5JikMSRkapAprBwrLSHgM/H6S1vEFBI0MUnj9iZAkt1KX0+KSFTpjEjppji0mY6up0glqKOiiFt5XKiP3yP01te471TPo5bCrhilgK9qpSira24HfEsv24BaUYjoQYDBkMus5Yv48qbJ2PdfZh2RwPFJb0oYjJZ+Z1ruMxoxDz4PdNmTmfWqkVk+tooO9hPcsF8ll13OfnD39tA7oolTJs1neSPLrIBxFKk8hF9fl4WKWodaRWttAA+oK/qNBa/DM2UqUyLLuFUSTOdPc6B/CIlcmUSSxabKW1p5WBxy+jrB3tpbeim22bi6l/fxeVJcSQMPmdMRjpz7voKk0IjmDFzHnqxhurtW2hyn2L9m3rizAlMnhiK7BOM4PX19Rw/fhyfz0d1dTV2ux2JRDI8DjqdTo4fP05FRcXYrCA+0ycaDAb0fjc2GbQa9YSLREgkSlQa3Yh2pR/oh+RSJBIpUoUa3VD5J8xnyY3Xc8MVGZS/t5WuoBSZ3oBBr0ETokIqU6MZ7Dd0Wi3R8YlMW7KSlq0HaWzcR9GxfqqPxnLVVYkYNDLEEjly1WAfGBaKYUY+uX0eTC09dIsG2rRmqD8YfDa9PgSlVIz4Y76/1+tl//79dHR00NXVRVNTE2KxGKlUSnNzM+3t7bS3t7Njxw5cn9FZasDnpfP4QezmDGJyzUTJyzlwtAO3xw/48XrUSMQRJKQaMJoMGAwTmTN7BiuXJQ9fo6+iGAtqdPmTyI84zbFTzXT3ugAbvd0dnD4ZoODHt1EwfQIZg+UQFhnBzK/cSn5iAmMOq43LqVOnqK2txWq1UlVVhd/vRyqVDvclDoeDnTt3fi5z5r0VxVjEIejz85gUcZqjJ1vo7nMRDAYI+KR4XZHEJhkJNxswGNKZkD2Lr94+iRDtVDInVoOyirIa8PvFtDVGMHVaHNFxEtq7esHvh7YWAinxaBITMMuVaDQqpFIVao0KlUKGRCRBLFOj0Q+OAYaB8UGvUyGXKlCrlShVKuQKFVqdEvnwbsu5cbvd7Nu3j66uLjo7O2lubh6uQ42NjXR0dNDa2squXbvO8mX0SfF73HQcPYA9Ooe4nFDCpZUcPN6J1xcAfHjdIUglZuJTDBiNBgyGScyfM4Mrlmeg1BrQ6w3o9SGoVSrkijN9nS4khtRkDaFmO4eGrtfdjt+oQ56ZQbRE9F8THs49Pl6E6HQ6kpKShidmQyb03G43brebKVOmIBaLP5lzs8522mVBevQadH439FdS5ozCnJDMpBTjiLOKOszZmSSW2Tm5r5yWbicnndEkJySNmy6h1M7JPfU0Y8CLEnNuFhq5jM4Pd1A1JY5NxQaUMTqyU7XUVQ1nPieK0FSiUqczxfUsez9IweKeRFLuVKZHKGDM/NPndmGpLKFNIidKLkVub6Lz+B7+9uhptKKBU7+ExGJOm86Nq3IGVgs/CrEcVLFkXJZP9O5Suqqb6CCP0YfpzkalUhEXF0dsbCzl5eW4XC5EItGwI6m0tDTUajUGw8Da3SdHhD5tBemFb3Lq1CHW9mTSOfNGbk6OJFrRzNjidLS10NnXSU+IEhVBRO0H2f56KSWHQgdWWkQiMM9kYU4fdqTIddHELZzBlDc20Fqr5JQqdPRWetBGV2s3TdVuJsyfyLTGDCpr+qmqbMaSHcpArVMSMTEbeVBO+fqdVE6KZuOpUDTJJjLlGloqgWAQ2g+w7fVSTh0c+SyzKFg4kcnp5sFrnRu9Xk9ycjJ2u53Kykp8Ph9yuXzYJPfUqVMRiURnn1MfSzBIf1017V4HHoP67NUlmxWnpZuKmDBWSqVnneEFwN5IS30v1R3RTF+SSqRGNJxOqlJhSksj2HwCRU8xR48f5c8d2waO5wCYcslLlxE5psd09fXQ1dJAm06FRCJG0lPMyRNn552YLiNibG9rs+Ls76EiNpSVsqFnlqIwxBI/fzpT3viQplolJYoz+hlnEQxCfx21di2S8FRm54QPrs4ByNEY5WhULly1fkRtB9n8ahnH95oG0wTAWs6hxnQmReeOuOhnQyQSERYWhlarpaOjg76+vuGVdKvVikajIT09/SNWRpVE5k8g4JRSv3En5ZlmNpwMx5gVQbpEQ08XQJBg0EJ9WRcet5G8WTnkNybxUnENjTlxTIxXoVYY0cbN54qppbx/5AjtYZPJn7mQXGMAhaWOGrsOqTmFWRNGlpUGU1IySVkdhL1QTle7hJMVAXzhccyYHjvquIXSaESpCeJs28fRYg2hMxNJzwhj5FfSREWh6WtHV1U5IvSTYW9torO/h94Q40B/MPS+3nDyZuUwuTGRF09V05gXS642CEgQSXVEzVrJxCOH8NQFORg1m5zB6wVt9TTWWajviWZqQQoR6qHdapCp1ZhSUgb+SZxL0ukPadjzEm+9nk5H8uUsTkshVf8xO56DaDQa4uPjiY6OHl6cE4lE+Hw++vr6yM7ORqFQoNOd0Xscpr+WxsL9PPnoUbSAuLOV7qh8cqYmoQy0Im47wIaXKijabhho+2IZRMxiWV4Pg6LaGeShRKZnkd5mQfVqMe3umUQzTp8xiEwbRXj2lUxc/wzFW/Q4/LkYJi1gXrQSZfPoKWLQ78dSW0l7wI1GEYLc1YWz6gQv/KkKQ4h8oB9WhqGKncFNV+USpVEMl/V4iMViwsPDMRgMtLW1DbcZkUhEf38/er2eyMjI4RXxUQQ80HqQdS9WULh1sFyCPrCWs69hAnOyAbx4PT2cPtSFLiOKxHgv0nobbx4soWPeLDTqKMKiQCrewdtPONiXtYxbZ6eSGTm0bx4A+qk93YU/kEDerDTyGuP4z7FKmiZGkmmy0tPcwpHySPIfTCHerBluU2KpFEPyGUHn4zAYDKSmpmKxWGhpaSEYDCIWi3E6nYhEIvLz8xGJRCiV43zJrmMcXnuCppr1Z8Ykew0lreGEJCUAAYJBK7UlXQSCyeTNTCK3MZb/HC2naVIEmVEmNAYdMcnH2fLsHyjKXsLyaXnMTzcxpJIak6jgZLebxuYe/GEOWpzRRE+Pp7tVjK2yjq4Z8ViKDyHT5WMIN6EQjdaxAsDVga2imP/8sWJA/wkAA2rtBJbdO4dPXlpnGKpDRqORlpYW+vv7h/vd/v5+jEYjERER458O8bug5QBrnqti/wbdQB0KeMFWzsH6PAqmQBAvHnc3JQc7MebGkBafha/uJGsOnaZz/iyUimjCY/yIT23jrb/Y2Ju1nDtmJ5Nq/ohxaxg5YWYDKr2ckpo2fH4TrdXFeALpmGKjztlmvwzGDs8XNZGRkWRnZ5OcnIzX6x3eugwEAkilUnJzc8nNzSU0NHRsVnC00FJ6gC1r1rBm9WrWbKym2xxO1NREzH4/IksvfYYoQkL1hI1VEFepUSBF295Ln6WX7o9Ip0SKtqufvuDASp0qLpdok47Qsnd4892XORqYRVhMBmkfN9MfQh6KPiKVK2b0Un6wFXdUDMlzMwaPmAH91ZQV7mDTmjWsXrOF99Y1I5qWSnRKOAa/G6+ti+b6Ourr6wd+TW20dNnxAR+/JzKIRofG6UNucTDaB+v4GI1GsrOzmTBhAhKJZPg7BQfttKelpZGXl0dMzOCW96dBm0FepgpjoIPjJ12k3r2ApFDtwMTV3UN/wxG2rVnDh6tX896Hxyl3yogsyCIGkHv66etsobFusDzq6qlv6cXi9A6stit0iBIWcE1KH47GGopOdzJyjS3obqO1w0ZNdyRzcgykTZ+N0e7AVlVNw4gRXR2XR4xBjaH0Hd587zWOieYSEZNK6shq6emnt2PMs7SOeJaPITo6muzsbBITE/F4PMPbzoFAALlcTl5eHrm5ueN7n7c301Syj81r1rB69RreW1dJb1Q4UZPjCfc5CHQXc3DrBtavXs3qdYUcqvYQcX0+0QbV4LGLMTg66bN56AhEEquHc55e8tqx9bbTNPTO9fXUN3fS3e/C53MQ6DrFwa0bWb96NR+sPcD+SgcR1+UTo1Oh9o2ft2tU3g2sG3rmWi+R1+YTox/xzAo90oR5XJ/SjbW+hiNlXaO+72iCYO3HqjYiDQ8jKiRAINBP45Gt7Nq4mtWb9rLrRDP2IAQ8FnrbW2gceq66euqauuhzuBnHHsanRiwWk5KSQnZ2NuHh4aOs4/n9fkwmE3l5eUyYMOFsoyGDhCRMJk4nR1PyDm+veYcTkkVExSaTPDRnCgbAWUtFkwRP0My0iXHET51PSEUZbc2ddLiDgBKpLIEZC830tvXSYxORMDUVfRDE1n5sISakYeFEjpWwFUpkMiWmth7svQ00OtS4pSbMY9MB+JwELI3UOSOQK0IwfJ7R1NVFT+1htq5Zw9rVq3nvw1NUB5REzs8gmgASZw3ljVJ8hDN1Yhzx+XNRl5fS1tJFx9DCqFgKMTNZmBLEaK1md1EL9qG+09FJry1AVzCSGN1HHJ9QJ5KaYiLd1MWuDR2EXzGNpJSIs87Dn4vQ0FCys7PJyMiAwTY+9DcYDJKZmUleXt7ZhhMYmCy5+ztpHmw3dT0e8IiJEAVwECTgttDT1nym7tY3UN/ai9V1jn5IqUQmVWLo6MPu85/zqCMAUh3y0BwK8p10lLXRJTWSvHwicYgGJpG2BupO7hnsh9bx7roa7MkxROXGEBbwEXD20N7UQMPQszU209BhxeUPfOzYJZFISEtLIzs7m9DQ0LPaTGhoKHl5eWRlZZ19PDYYAHffWeVS19xNv9MzMHb67Xj7ayiqCSUiNJS8/CwiIxORHC2kps+NzWcmNjeJrJkGAnW1NJYdZue2jazedYSDNX0Q9BO0V1PaKCcoCWfqxHji8mahLjlJa1sPXf192K391HvjCNdKUX4yeXZc4uLiyM7OJjY2dtRY4ff7UavVw2PFuEKu10Z/d9uofreuqYPufufAtw/6wFFFaaMckSScqZMSiM2diWroPbx6jDGJTLkqFnl3G+3lxzm4dyurt+xm0+kuXN4AoXGpSGUa+tsa8DrqKAtGIDdnEecHXWs1jR4bp4uthOoUmEPP0SEEvAQc3bQ1NpwZH+qbaGzqxe4PDBpU+XTIZDLS09PJzs7GZDKNqkM+n4/w8HDy8vLIzMw8e3EoGABPH91tTaPrUFM3/S7vwLjgt+Lur6OwJpzocBO5+ROIMMciOlZEtcWLwx9B/MQkMqbp8NfW0FBayI6tG1i9+yiFdZbR9xsHRVgE2hATkpJKOr39VFTbEPvFxMeMO4p/aYy3bHbR4na78Xq9OByOs87hBoPBYZNwSqXy7I6nt5TT205z4LAMidtCm+kW7vvxcm65IptQbw9BqRSZz4rf68MTGDQ2MkTAT4AgPrkMmVSK3GfH7/HhPVc6mRTZ4OleiCYioY+YtCP8v5/6uPL/7iU21ULvsZFHnT4alc5I7rKbUJ2ACTFmJsTAsDmWjoPsPL6JDWtliFURkHYbf/rFYqZpitnT3k/0nBk89OT1xIrPrG4P8XEd/TB+H36JiIBYMup1z4XX68Xtdp91FpjBCZfD4UAulyOTycZfvfkYYiZMI6Zeg/6ImaU5oBUBNsDWSMexHTzVsHGgYcQuYfn1y/nxjQmENzcjjVvKtdfNZ/nSLMJG1J9g507WNQ8e2RKJSJt3HQdeqqOr5ASNE8+s1wW6q2nu6Oa0K5w5zno61AZCew9i69Nwsi2frOEqF0tUUgcRiYf52c9g1RPfJjapnZbusuF7ELeM62+8nKVLMkc9yydlZFsYu4oTDAaHFUfHbQs9xZzcWcHeg0okYgmk3s7931nMVXkOWnedwt+wkdef2kMg6MQmzyJ65q08+7dFJIjOrkMASCSI9SoU4SFofSCRDlf+0UTMYHZeLl8Z0gsbwnKKkp0n8dVv5LUn9wwov4flkzX/Rh57cCERLe+w9Zx5Tw7nffXJPQSDDmyKCcTNvo2n/1pAgkiErONMepFESvrlN7L3hXq6TvfQlHWu9VgRSKVIA168Hi9uv5dAoIMT7z7FG/srKXLnkjjlcv78HQn++BXcNI7i/B+f7R170c9EMBgcdkI35MBvqG2JRCK8Xu+wSVW1Wn1WfRggjuiUehqiCvnNowpW/fl+YuNrcTcN7EgEgwF8zccotUhwS2Uo/L00h0SQ3vQ+3XWzqevNITFSRDDgpK87gFIhQSb109/vwBcpRyyVIvF7CXo8uP1jRqZAgGAwgFchQyKTIgsLQaVVoB6bDgb0teQyZFFaQhQyFGP72E+DtY6mwn08WbVu4DYJK7nm5kV848bJhAc8eJuPUWqR4lfKUPj7aA4xk9n0Pp21c6lPMzJyyhafv4ialtNUHtlHTapysO+XINGrUIap0fgG5Jlx6z0QnpRF4rSrkJ6UMy9DQdTHbmOfwePxDP9GMjQGDh3xk8vlZwupxixSFy3m+79bSaxIhKRrG++8VcHB1YeY/E05/oQrue2bS1gwJ3lAQXyQYPsm3iytGXUpAPwD39InlyERffyRGYlMTsb8K9GdthIdHsvUxMFNBIDuExwpqmfnLgUSqQrSbuehHyxiSUoXVft6CMm9g//35+vIitB97M7yWILBIA6Hg2AwiMfjGdUmPrbNSJSQuIo7zqU4DwSdvTgbj1LojGSR045XDK6giOzqQ5ys+wrpoTpS865kVd6VrPLaCZ54jh/97S3+2pnOtKV3MPHbuUiaiijpVyA3SpAF+mlThZHdsIfW2gIak0KQhyhQRCvQBkXIAp99SXrIcePQiYYhRIOnG4bGCpVKdfZkO2ouBUvOpTg/oJfjayqixKJEFSZGFuinXWViQsNuWmsX0zgxjbi4Scy65zlm3QPB0rd45tV3+dkrPpRTvsG7P5tHTGoWuqpu2moqsKb3UCLPYoEkmlhZNzZ5K03uXhpb5hAXEU50BIwx8TiAOgbdpK/y0JPXkW4KOWsxLXjWtuDHM7IOeQcdhg/NZ0QiER6PB6vVilgsRq1Wj56TStWQeA1fO4fivAkIOnpwNJ7gkDOGK502PJIg3gBkVBdyrO5O0gxqkiZfyzWTr+Uadz/BE//h/idfY6slh8uW30bet6eNPx4PIoqMJ0LfwmUniyizJdDSnYMpOoXML04n/hPxGavthcnp06fZsGED+/fvHz7GEgwGkUqluN1uPvzwQ9auXUttbe3YrIOK83/g9bVvsO2xVWT6PPT12ugDkMkhOp7ophK6apupHju36OvFioeOzDiiY+JJbCqmq7aF6r5zpEuJJEY0YBCYwQFq6pK7mSBayYwJeqLGWKz7XCRfz1cffZZ3t29n+/o32f63G5gTb0L9caPHp6GzjS69HGe0kU/y6I2NjWzYsIH169cP60oEAgHEYjFKpZK9e/eydu1aTp48OTbr58M0gaTlD/Pytm1s3L6d7a88wsM35RP+qYQAESLzIlbke0jVVbD11JmY3upyao++z9b1v+ErBYtYVvA9Htuwmk3tVRw9NdpPjzllAlMW3U226Apm5ugwh4+K/tycOnWKDRs2cOjQIUJCQggOGpSQSqU4HA7Wrl3L2rVraWxsHJt1UHH+T7y5fTvbt25h+7P3csvMRPQiEagHFedffo+1zz7IfXMS8NS208K5FcQxhqL3O9CWH+dgCzg+y/aBOhLZxO/y+1feZ+327Wx/5y/864cLiBGJkH3cVGgw72Ovvs/aZx/kO7PjcZ/rmUUSiFjCynwnCSFVbC8em2AQkQjMUYT3NOKprqKkS4FUnsSSn73MP//zGD+//TKSxub5kvD7/ezZs4f169dTWVmJUqkcVvqVyWQ0NDSwdu1a1q1bN2yRZjwi0ycyZeHXmSBZzqxcDeEjdvaCfj8dxwupPP4qL/ztB9xUcA3LVv6clxsPsrWyjpp6C9CP232EF/7kYlKmmZiwbt56dRctIhE+cxTmnnrc1dWc7hp518Hjd04L9dlxmOLiSeyux1VdQ8nYdAAKBWJzFHF1R2mp62BY3euzEDqJ7Gt+wSvbtrF5+3a2v/QQP7o6jzCRiIDfT8exQ1SeeJXnnvw+NxVcw4pVj/BK8yG2VQy97whMM5iZY2BhwkneLwSbCzCFofdaUZef5HAruD7Lcu0noLa2lg0bNrBlyxYYXOgZ6k8lEgk7duxg7dq1lJaWjs16NqYwDB4xxvpOWgf1cj4Vtn6c7n4aM2IIk0tHHOv7DMQu5crv/5W3tm9n+5b1bP/X17hqUiy6j2nunwSPx8OuXbtYv349tbW1KBSK4TYjl8upra1l7dq1bNq0Cafz089g3X09NB3cRmnxs/z6B1/hmoI7uPunf2Odt5QdRxrp6h2xRytTI5p0D79+6lf8bk4W6YUlFHncNB49SOWJl3n2ifu4seBarrz+V7zedZht5fXUWUSo5RKiSvdzoslDz7m3fD+Wo0ePsmHDBo4dO4ZarR7egZNKpfT19Q2PFW1tI8yBf0L8g4ruFSdf5uk/fZcbCq7jqhsf5Y3uIraV11PfNPpglij9Ku78yc959r6VzN96mNMuD72mMIytFpR7jnCqp5OoKbmEmFKIS9SSkOqksb2ThkAkapSjFg6+bFwuFzt27GD9+vXU19ejUCiGdzEVCgXV1dWsXbuWzZs343aPdNrwyXD1dNF4aCulxc/wy/tu4+qCr/CNX/yDde5SdhY10dM74ppyLaL8b/L7f/6KR6emkFJUyvFg8GPabxxhkdFMnltJR/EhDquiCRjiSPtU86HPzyUlpKSkpJCSkoJcLmfmzJmoVKrh4w6ZmZn4fD4mT548/jGiIcX5yCQMc+7j/74TTqBoN8//YxelqEAyhQUrFLQ2n2DjlhPDCuLBYDl7Xl/Nzi1lSKbMIFY6jaUrFLQ0n2DjljOK5APpPmDH1jIk+TkDQspgXRBrk4ifcyt/eOd+lmdGYv4iv5p4hDK4XodBo0A2bLLx8+IgGDzKu797jVa3kthpkzB/ggoeGRnJxIkT8fl85OTkEBoais/nQ61Wk5+fj1wuJy0tbfj4wheGaLTivEGnRq0YMq35KRDLCc+fglGupP+DDykHXMEuassr8WqzufFXL/PCc8/x/HMv8crj3+SqPANlx07TNnjED0CsSyV53m384e37WJIaTvinfoiPJi0tjaSkJJRKJTNmzEAulxMIBAgPDyc9PR2/38/UqVPHPwIyUnHeYMCgVaGQSQbKaaTifM4VXHfTfL4zo5Vf3/Qsu+q7GdecgCiRlKxYstKb+Pd9z7Kv+Uw6e1sbR599lqPdPXR/5NbdGMV5nQbtsHnmj2OE4nzOSq6/aR7fmNrCb275N7saeugZu2colmOeNg2DWIJlzXoqR2xMnkEEkhymzdUjklTxzlv7aQuKEat1aLQhqBWyz7zA/2mRSCRMmTKF0NBQzGYzWVlZeL1egsEgiYmJREdHo9FomDdv3kfqIIl16aQX3M7vX/sWBQlGQocL143f38LJw6VEzryN+/7wEi889zzP/+c5Xn30GuIlNqqqG2jtaqd92wfYb1hB6tXf5oYJWhZK17DmhBi7N4fp8/QgquTddw7QNjyA1nJ8ywbWPLeX4OwZRGqmMX+enmDPUd7481pOBIPDvoLaT5zg6NodnFZMYv7VEiq2b2HNuweoHLEbW7t1K0dPFdOglBNTcYiyZhdDeu5uq4XWE4epCtUjCVGhHaM4b9AO9QcefL5mThSWEjX7Du4fet9//4dXf3UVMaJ+qmsa6RlZbcQy9BmZRCYn4XzxVaqtVmziZDJyo0iOr+e5Hz7PgQ4LQ+tb1uZmjj73HEctZ8I+K7GxsUyYMAGASZMmodfr8fv9aLVa8vLyEIvFZGVlkfxJ9BTqqqlz9VESPWCF7NPV4RqOblzP1reOEHvtcmJChqwofUZGKs7r9Ri0ShRS8Sds8x+NTCZj2rRpGAwGoqKiyMjIGD4iPuRTSK/Xc9lll33q3fxg0EZfdwPFJ1qY9vU/8esnX+D5517kxb//nr9/dyZdpWXUV2xm9c6dvLC+anBXVona58IXIsYWoULraebEwdPEXX43P/jjS7zw3As8/+9neO2XVxLu6aW6PoAiLoWFS/t57zcvs/1ELa2D9/c6HBS//DJHa8+EfRRZWVnExsai1WqZMmUKIpGIQCBAVFQUSUlJiMViZs2adZbrho8jiAuPp5ljB04Tv+Aefjj0Hs8+zWu/WEmou5vq4u3sO7aF3790CqvDCxIFioAPidRHV1wYBokYhSSNuGQl5pgWjh4PEB4uRaWSoDeKENta2P/iBqqyMlEZR+9uftnI5XKmT58+7DQ8LS1tuA6lpKRgNpsxGo3Mnj37463LjiEYtNLTVU/Z6U5mfuspfvu3wTr01G/48zem0XKimPqqTby3fRevbKoZWDSTqgjxOvFqpdjNekzn3rgdRIwxTENqupY3//wqDlkIutjoT9nmPz9jN8svanQ6HYZBr+VKpZLAoGk4sVg8vM0dHh7+0YrzEgWY0shftIjWno3sKF7Hc//o45qbVpG86Brm7TlE0YlXeKxi9aDCZitOmxnD1AUsmJeEWqQlY9m1zN9xiKLjr/BYuWZ0umkzKZgXj0pUinhociQJQR2qYdL8gX+Dn17o/myMpzhPCLrQaGYuT6b2rW0c2NtKj7wesbiHG1aAu/0AO948zemisMEByI80dBZ5s6czOXOkoYBzo1arCQsLG945YfAMZzAYRKVSIRKJBix26T/FmYfPTRDGKs4jAsxMmCimdcximtyUTWpmDTNzmviwKYi/v4KabiPB8MlcdeV85kcNbn13gcW6n7pNxznRl4RzaDVVEkJIuIZJgzsoo7abx1OcH3yWnIKF5E9OHzBV/BEMlV9HR8dZbWGowwwPD//ISevHookkJnc6830eKivWseZpF10L0gmzVXN07RbqGyS8+JSKq76ygEkZU5l2RT/Vr+1h7TN17FIo0ABuv5xOZyj3TPaj6B1H+R0T8UlKQj5OF7CnmJNjle7HySvSRBKbO53LfR6qKzaw+l9OumYohieyQ8hNE0jPrGLGhHa2tAfwW06wa9sOtq4v5kR3JP/4nYIb7p1LwuzFXMZ+XMfe4Q+Pbh1QPnbU0+qNR5k4FZOo8Uvv9EWDivNqtZpgMIhcLh8+Hy2TyZDJZMjlcqKiRtoSHgepBo1Zy8TB7dDg0KaL146/5zRFnVkkLZ/LnEWzyTOJIOAlmN7NgeJi+o9uZYchgqO7NUy8LZnEDDMGbSW+tlpefmYT0x6ZS+JlS7iMA7hPvMMfHt0yUFZ04XaqkU+8kq+sSMWs0SKZs4TLHDtwFK7lyUePEQXIgH53CPrYDO6UR6BddRMLvDs5fOw1/vzolmErRp0OAxMvy2JOrppV151mx5v/pGKNGIUMfF4fdnsEly/IJj2+jrKmc6yQe634eko53JlN8pVzmVswk1yjCAIegund7DtVjL2mn2rTaNtJMm0C0SnTWTL1ENsaxHjREJ49g+lL7dS/s5N3/17DdrkMNeDyKegLRHKv94wy/WclJCQEk8mERCIZ1Z8yeERHJBJhNBrH1yk4S3HegTMygxnXJhMVOIl0rOI8YiCCiVOCNHbU0nDoAE8+ehQNICaAOKjENHsF18yPIVT1aYWcT4F7HMV5lMhVscy86SomRmkwfUTBigeVnlUq1XAbGWozcrkcqVSKQqEYfxHn43B10NPt4JhtFgVL5rEgI4xoNeBsoDfOSua6E3R25iNy1dFw8G1+dXiwwdn7ceuyiZ+XRGhPJW935pK+cC5z509hgmHwSFl6NzuOnsZX00HXzMlMvuF6lr64i6L3Wji5WYMB8AfFtNrCuH6y6BMphBuNRrRaLTabbdSOkkQiGVb6joiI+NTCGl4rnu5KDnXlkbl4LnPn5ZNtEA34WMnoYfvR03gapFSHWene9hZ/qoxCJJWAy4FXGkrCDSuIVSlQIiPULEEWGmR/tYl7rhOjU4JUpyYY9NJz4DSme76LWhuC1NlE/ck9fPDSJqqr4J3ngtiX6VGea7Ye8ED/Kba8t41dW6upcSXw7J9l3HDvHFI0yo88RiiRSDCbzePWIZlMhlQqHS67T42zne7ufk45ZrFk2TwWpuqJVAGOBDqi7WSsOUp75zT8fTU0HnmbXx0cnEjY+3Hpc0hakDtgwn7sdccgNxkw5kzE8FgXWV8xEhXzuZYVPhOS22677ZexsbFjwy8ahia6brebQCCA1+vF5XJhtVqHG5jVaqWrqwuNRkNsbOzZ53J9/fTa1ejNUaSnhaMWiUAbTZTegdjVR02LmLgpk0iKSyFVaydoaeBYaSsWiwWLJUDMzFXMW76Ey5MViEQgD0smNmScdLOuYv6yJcxPkoLfQVu/keT0WGKj9aMm9yK/A5tLQlAeTt7kONQiERK/A5tTQlAxImw4hx/8Ttr7jSRlDF1vIKyt30jycNiIe/gc2Hr76OvsoLPfgtViGXxOD96AjNgsHfVHGvGLRShC9MjEJjLnxOCpb8PhsNJrsWCxuLBYTEz7yleYMyWF5HHGQAbPRJeUlDBlypThTtDv9w9bXRMPmu1zuVw0NTWhVCqJiopCqz3HzDToB7+D9n7TwLtFjVd+UlCayZsUQ8hQ+Y0JG16RC/oI+py017diGX63oZ8YY0I0+vBYwnUDedUiEWLU6EJUmKL1dIpiKMiR4fLHY06YwMxJYagGd5REainYAmjsfkImpyPzmsjKjiM2Snf2MzuliBQmcnKNWBvasI73LClpxMRHEj6mCre3t9Pb20t+fv6wvs+Q7o/VakWpVCISibBYLPT09KDVaomLixuzwhMEn5UeewihUVGkpJx5DwD8btweP32eUPKnJxAaokCq0KHWG8kKbaa43IMmTInf5aSzzoIuRkXQHUZ8TgKJmWnEmSMH03XQ1dGDxWLBLlIgmbyUlelqRH29WCy9dI965wAKk4nw5CQ0YhP50wbvO+Kp8Vnpaes8R95QwpMTB/JOT8AUIkeq0KM2GMg0tXCq3IM2OhJdWAxmvZmciWe+r16jwhClp1sczcKcAK1lrXT1eVCbNHhtJjLnphIbl0qCTorBU8v+4030WyxYHCK0Cbnkz5nGtAjosJpIy44jOmLomw+Uc7ddQ1h0FKnJgwL/YFh4dDQpyaGjy34M1dXVqFQqkpOTh48SuFwu3G43Lpdr+NhGZ2cnLpcLk8l09oQr4CPodw4834Q4oiO0Y/oIO/1OGRKljqwUKU3WLCZPzyQzQTswsRaJQKuAZgc6hQ+vUUu1O4+rLk8iTi8nRKVALNLQftJC/PxUImNTSdCL0bvr2H9isKwsXoyZc7nsmptYmalEIRUhM8QSGSrHIG7h6IkmbIPf02WMJ2rSbFakhaEKTyPeZMdra6OsvG34m/sS8snJm8r81Cji0mXUFpXQ2tFJp8WC1a9ClLCYu67KI9UITqccqcZMTm704DcfxO/Cb++g0ppN/vRMMuKH3peB921yoDfoUCUmopOGMXlawoAXepSolCHEJahpkyQyNS+BlKREIszhpBmaOVnaSndn70C9l4Qgn7yEK7PMGBUSCLhxuYPYfGHkT4/HoBqyQHQ2/f39VFVVMWXKFCSD/jyG+lOHw4FUKkUikeB0OmlpaUGlUhETE3PW4pzIb6O/u4e+7i66LJaB7+FLZMLsWVyxNB2z105nYxv9Tht9w22qH4tFTFhqLFqFGHH/iLwWFVGT5zP32uXMHOlnwe/C5Q5i94cyeVrCCOtKDLYFG102LRHx0SQnhQ542T4rbAR+Fy6rhd62NvqctsF7W7BYnNiccmLzJxFjONvjfGVlJVqtloSEhGH9HafTidvtxuPxoFKpCAQCdHR04PF4MJlMZ08wg14CPjedNhNZeXFEhmkGhcyhZ9YRGakmLExPb3AiiwuSidBIB95XJga1EkllH6b8yUSoPai6KzjZPPj8TgMJk6cxd34Gsf5uqmwTmD4rg9SYwXuIRaBTQoMdgzmKsAk5pCamkmFqpb6xneamLiwWC1aXh2DuYhbkJJA0jsf55uZmnE4nOTk5w2PF0Fhst9tRqQYmqn19fVgsFvR6PTExMWP0UQLgt9Fl1RGVEENS4hmP8yKfjX7nwAmOtEQ5zbYcZszOJC0mZPA9OPMeMfGY4sKI7j7BqVYr3X0WLHYFupgJFNxwORk6CXIRiH0W7EElHcpcVs5OIFwlRSr24XT6cfZLyF24jNzYEHR00tFQx5Gjnaij1IgDoUTEhRGRGImCMCZNjUcnH/weDI799hqOHGqgx+lHpdcS8IaSeQ6P8xUVFRgMBuLi4j6yDrW3t+PxeIZ3t0cR9OL3eui0m8iZFE+EabBcggHw2ei06omOUmE0GeiXTGTJwkTMaunAfE8mBpUCWVUvodOmEqF0ouiu5NRwHTKSPHUGly2YSIJyoMsS+WxYHEpUhgiysiNRj9QVk0lApUHWGsWk5bkkxp9bv8vj8VBSUkJKSsoXuoB8yXmcB+jt7WXdunXk5+ej0+loaWmhtbWVK6+8crQCnMB/hfE8zg+xbt06wsPDiY6Opr+/n8LCQq688srxLbAJnJPxPM4DdHZ2smnTJqZOnYpGo6GxsZHu7m5Wrlw59hICFxDjeZxn0D9OZWUl+fn5ABQXF2MymZg+ffqwIr3Ahc14HucZnESsW7eOhIQEzGYzPT09FBcXc+WVV557wecSYjyP8wzq7zU0NDBx4oBL0BMnThAVFUV+fv5F2WbG8zjPoPCyZ88epk2bhkKhoKamBo/Hw6JFi8Ze4pJlPI/zAMePH6e1tZXc3AGT8seOHSM+Pn64Tl0MfFke5y/JGblIJEKhUAyvDLgH7cYPWasYapQC/3tkMhk+nw+73T7KusjQ8SSBz8fQ8S6Xy4Xdbh9lycY/xhu9wIWPRCJBIpFgt9ux2+34/f5hqzPC9774GTrqJ/SnnxyJRIJYLB5uM4FAYLjNXEplNjRWOJ1O7Hb7sMUqhLHiY5FKpYhEonHr0NCCocD4XJJCikajYf78+XR2dlJcPGCeZ9asWYgGHe0IuynnD1OnTiUYDFJcXExnZydLlixBp9MNC5UCnw+dTse8efNoa2ujuLgYmUzG9OnTYXBQEsr44iI2Npb09HSKi4spLi4mLi6OjIwMRCIREolE+N4XMVKplBkzZuByuSguLsZqtbJgwYJh86fCtx+fhIQEkpKShttMcnIyqampw/OFS4WhHde6ujqKi4vRarVMnjwZhLHiY0lMTCQhIWG4DqWlpZGcnHzJ1aHPwiVZOlKpdPgc4JCfiPDw8Ity6/ZCx2QyIZPJcDqdeL1eoqKihlclhG/1+ZHJZJjNZgKBAHa7HYlEQlhYmNAWLlLUajV6vR63243NZkOj0aDT6YTvfQkgFosJCwtDIpHgcDjw+/1ERkYOTzCF7z8+ISEho9qMVqtFo9Fccm1GoVAQFhY2fLJBLpdjMpkuuXL4LGg0GrRaLS6XC5vNhk6nGzb9L5TdR3NJCilDxMTEkJyc/KlN5wn8dwkPDyc5OZno6OjhMGFr+YtDJBIRFxdHcnKyoOtzCaBSqUhJSSE5OXl4siVw6RAREUFycvLZhhIEzsmQEYqkpKTPZ/HwAkcikZCQkEBycjJGo3FstMBHEBISQkpKyiVfhz4tl4TivEajob29fZRCtsD5Q3d3N+vWrePuu+9GLpd/pEM5gc9GeXk5TU1NfO1rX6Otre0s79MCFxd79+4lPDycefPm0d7ePjZa4CKmtbWVPXv2cPfdd+Pz+XA4xnOxLTCWnTt3Eh8fz8yZM+no6Bgbfclw8uRJbDYbN954I62trYLOxKdg+/btpKSkMHXqVDo7Rztovtix2+18+OGHLFu27AtVnL/ohRQGV4rff//9S7rjOZ8ZMg198803U1ZW9sk8Hwt8Kvx+P2FhYVx//fW8++679PT0jE0icBHh9XqZOHEiqamprFmzZmy0wEXMkL+jm2++mcLCQmpqasYmERgHr9fLlClTiI2NZf369WOjLxl8Ph9xcXEsWrSI9957D7vdPjaJwDnwer1Mnz4ds9nMpk2bxkZf1AQH3RqsWrXqixVStmzZEpw/f9BL4EWG1+ultqWbp1Yfo7W1DbdH2Ek5H4kN03LfVZNJTk7G6XQKOylfAkOWWJKSkmhraxt2KiVwceJyuYad1wqLM5cWQz5RkpOT6e/vF3ZSPiFOpxODwYBOp7vkVsFH4vF4kMlkxMTE0N7eLuykfAqcTidGoxGNRkNXV9fY6IuaYDCI3W4nLCzs0zv2/AhE27ZtCy5cuHBs+EWB2+2muLqF7/xtGz7/pWMq8EIjPcbI375bgE6nG+MQSuCLwuVy4fF4xvcqLXDRYbPZEIvFwtnnSxCv14vNZkOv1wuWgz4FNpsNiUQy7KzwUsXpdOLz+QTfOZ8Bq9WKVCq9JOtQIBDAYrF84TqOQg8mICAgICAgICAgIHBeIQgpAgICAgICAgICAgLnFYKQIiAgICAgICAgICBwXiEIKQICAgICAgICAgIC5xUXoJDSTn3ZcTa9cZTOQBDf2GgBAQEBAQEBAQEBgQsayZ133vnLpKSkseHnJY6GIo4e2cr7646xu9DLlFW56MQizmUPyu/309FrZX1hLYEv2OKAwCdHrVNhDjeRGqsnNUyGt8uJGxiytxaqU7FiejIKhUKwRvMl4fP58Pv9KBSKsVECXxSuPjrqSjh+eC8Hj5VS0mzBJ1GjVqlRSIFgAEf9IQqLjnCw6CQlJSWcLi2j2WciRKVAo5AAEAz46TpdSNmRIxwra6XBJsUcrUcKiAZv5bH10X5iHycOH+NYrRUrCkyhIciG4j0eRCIRMtlQiMBFQTAAji5qThdy9MhhikpqKO9wotQYUcmlSMUDVnY8Hg9KpRKRaKjGnKGv5gCnjpZyutGPJjEU1RewWtlTX8bpI4c53CQmzqxFLhuoy2Px9NTTePogm/eeoKSkn6A+BJVOxfnQK3k8HsRi8SXfZnw+H4FAQBgrPgOXch0KBoNfisP0C0pI6drzd5799xs8v6OD/phJXH9VHkZBSDnvCY8LIycziRWzElg6QU37nibaRCKGqrMgpHz5CELKl4+j5hgH1r3If577By+9v5NNp1twKWKINEcSa5QR9Hto/fCnPPrkK/zjtY3s272DHbv2UK2bRWaCmQSTnKDPi7u3nYOv/ZPVL73OO9vLOWrTkTs9g1C5GKlIRMDtpKuqmN0v/pV3X3yHd4700KM2k54VR5h8oP0IQsrFSdDvxVayk9Wv/Y0XXn2NNzcXsaOqG7U5m7gwDUa15GOFlJpNf+CFv33A2wfFZN42k2gYFm4/K5U7XueNf/2dP+3ScOOSTAza8f0k2Cp3sO+9v/PQn9/ng9da0c7MIDEzitCxCf8HXMoTzJEIQspn51KuQ1+WkHJBzQgjlj7Mr//4G/5y3xLSRqwqCpzftNV2sGNbEe/uL2Vv39hYAYGLgwPv7aSyMZTlP1vP4UP7WPtAEg0n9/PehiOj0sUt+x4/enorRUVFFB7Yz2v3zWZ2YggA7s5G6t/+K/syf8hVz2xhzds/4rdXunn9zSYslgEHnNayQioOH+Lg4hd4eP0+tvx7BcsTrWzeKjhtvNjxuDys+etbOCOu5ft/28re1f/gmRs8PP2fNRwrqR+bfFwyrn2M62+8j+uSx8Z8diZcsZibf/RtrgA+yjOPbsIVXPnTt9m3cxs/XxhFmn5sCgEBAYEzXFBCilimRh0SQohSzvibyQLnIwF/AK/Xh8frx/sJfGraa/ax95/3sGjRooHfHT/gp89tpWTkHKy3llPr/sYv7xlMs+hefvCDR3l2zTa2D6Xr2MbW/9zH9+9YxKKV17H4e3/hX0c6qLUP3GPPP+9n0aL7uffe+7n++utZtOgGbrnn/3i3GfqGHLLba2gr+gdP3LeIa1cuYtEdP+R7z29je4edYOAQr37zDr626A5uWHQH91//Vb7350O8+OM7+O71X+F7v3uL7bVtBA49wTfuuJZFX/kNT751DGzjhAlc8Ey66Wau/sZXWTwlBaPRRNr0qcw0GEn1jtacE8tVqDQD3uANBj1apRSpZGDJpb83QOEOJ6npSmIS9OiiwwnRKHFvO0jA7gSgpd5LfbmPabO1hEbo0cdHIXM48Bw+Neo+AhcfMpWKBQ/8P669aQXTsuIxx8aQPWsGcxFj9o3fuVpbD7PvtYf5zqJFLF+0iK//7A02He5CMXL07znI4Xcf5uG7FrFo6XIWffO3/GFbBcUWsDQcYdcflnPDlb/lud2VNLUe5shrD7No6RUs+ubz7D7ejEQuQ6FSIvU4aN/4K35y77UsWnQzN3/zCf55tJV+94DXcpFEjlylxaDXo5aJGaz2o+g5+B/+9fCtA/360uUs+tbveH57JU39Y1N+ObjaSyl95X5uuvp+vva1+7n11ltZtOhqVl7zU1442UvLQDO8+PHa4fiz/Py+21h0y0M8/PS+s8J+9vS+sbkEAHqr6dzye264+goW3fUEr2wqHT9M4GO5oIQUgUsAWyWN7R2UOCewZMmSgd/cbKIldqoOHKML8NFH5f69FBfVE4yZMZguG6O9lfbTFbS5XUAZ29fU0e1NYMLcJSxZNJfF08w4tu+muqKWbq0ZvTmaBNt7VLX6iUiazLzpCYSqG/jnxnK6+l1AGzVlVezd4SJi5hLmFSxhydws4lxd1H+4h3LCiM7S4O20YumWEhKtx73z/9jVG4rOKCbE38q+KjeEZhPt6cRkkCELN4FMdXaYwAVPaFIS8enJROgVBIMBnNUVBHQqRFERo9J1H1vHmqcf5f/9v0f4yU+f5tVDvTQMTsC8XujpAr0GlApAakYmjiW0s4xGn5t+wOkEhw3CTCCRAPIE1D41it56KgDPqLsJXEyIJRKic3OJj4/EoJYRsNtwVpUiSo4Dg25scrCWcupIKXuKZaQtWcLCJUuYGNJDb1stBzsA/EANh3bUUttiImXOEpYsLmDJrDgkJ09Qc6SY9pBQQtPmE9LaisNmxaEKIzQ5gwXzYghWdeDrdQzcy9mJt34zuxukRKRPZcncaUzUBel8/zUONtno+riTIEEv9B7mWLMUn2nqQL++uIAlM2Px1tdSX1HHf0NOkSj1aGInEOveRkt7H4rQbBZcNoH0iEbe3FtBTYdtbJaLE7EUTOmYAzbCQvwoIs1nh0WZx+YSAFBokRqTiXU2YgjXIDMaxg8T+FgEIUXgvMLVcpySU8fZWScnISFh4KcHZ10xuzfspMQKLms1x0pbaAmksuTWH/Lggw/y4IO3c80V85icGEOC1EqwdS9bSlXI067lxnsf5MHvf4cHbrucnO6DNNfW0ihPI2HKUq6b6CFj9gKuu/Ob/PiHt3Ddsljqt57AY3WCpZLq2lYK+3IpuO1BvvODB3nw3hu5OlWKonQP+9qTyVs5hwlzZjC54AqW33AV6V0nUF92HSuumcW0VDn1XWJEKUu4+crZXD4jHXOYAaQKROZEkrLncvWyy5g7JWFsMQhcwPidNvrLjrB7TweS6Ciic2IGIkRiQhJnMSFWT3iwk/r6OmrrKtm55Sg1Td3DOlqj0SPFjJEeWvEz/vTIjBI1cvqpA4Y2AQUubjw9bTSeLGHnQTvxszMwRJ896XE1FlLT0Edn2HJuefBBfvjgg3ztyiwSTSLau4GADzoOc6DCjyV0MVff9SAP/viHPHjncmZRhaX6FNWiRFIL7mNeoh6zCjAkkThzBd+/bxUzDSEM39XtItjRjjV+EVfc/m0e/NE3uGfVRPJ6DrGrvJvm/o+2xRn0ebBXbGLnyRbq7PqBvj8ulgRlP9X7d3Oo6DT1/4VdDJk+mogp13PlJBl5M6ez9Oav8+Mf3cW9X8mk/3gVjg7L2CwXJxIFxM/niiWXsXxuFtFRoSCWQGgccRmzWF4wl+Vz08bmEgBQm9FkLubr185kVn4KJqMW5Gqkkamk5y7gxitmMSU7amwugXEQhBSB8wp7cwPVBz5k/Vt/5Gc/+9ng7w8888qHHG5sp6Yb3O1l1Kji8adfxmXpQyqXYeRedQtX3LyKy9R2OH6YttR4JOZQBo49yxARSWZuNza3jbomACUiUTp58/Iwx4eiDgsnKTGNgsYWtB4vNNZh8zroyckkcli5VE94hJi45HaKjoPDCWQlEpafRXpoMiJRAQVzE0mMUw2/k0gkImPhbLwWG40nKui3d+OpfoddkjkYQlPJGWcBVODCxOe00VtTyumNa9jYdzkzciezInvgA4skMsLm3cePf/csb7zxBm+88QwvPfcNEk5vo6+hkt6xFwMgQBA/XmQoEJ3jmKufABBAilrQ1bskcPf30HaykKMHK9nBzXxjQTI5UWcrq/fWViLSyIibM4MIQAIY8qeQk5FFPoDfD6Un6Qo34IuPZmBPVwyEk5RuR6zoo7x67FXPhQm5fCEFC/KJijSARkNYZjQLlkdTVtNDT59rbIZRBP1+esuLObnjZV569reDff/P+dnP/sp7Ows50WKh9b+xlQKDJZVExtRc4jKjUOh0xGRPZF5nL2bHf0FSOo9InpWPTCKl7uBJLC4Xnro1HPKnEzDlMdU4NrXAEDKVgpwVC7HWt9JcVoe1vxlrwzY2K64kITyGVM3YHALjIQgpAucVprBwUhfczpW/Wcvhw4dH/Dby4RuPcGs8mORjc53viCByOXNDWgi37WdtVT+N+7YTmZmMTtguv6hoObyVbS//h3dkt/HAPZczOzd8bJIRKBARRwwy3MD4NiWsuLDQSAI5yBj/at30E8BBJDOBM+KxwMVKxfv/ZP2O07QkXsdTP5xBuOHCt8QkFouJjk0k86Zf8ZN/bx3T/7/D339yHQvGbwACXyZh88nX+8hxbeadWg9VB/ZiiA7DlBg/NqXASCRqiLmWpapTiC3H2FTeRceJQuKnTkRtEqS7T8oFJaR07niCx37xWx7+v3+yc8tjfG3pYn7zbikn2semFLhQESWnYdAoMZ8spMJuQBZiGFYw1mnVKMQgMueS7qhBWn9ohJJ8B0dW/4cXn32O1w45YdplRJfV4mvrGJz8eQjSwqmj4WiVWlISR912fBJT0cpDCDtaTPPwMZpe2lv81FVEM3s6hHyUKZuRiOWkp5lQqLvYsKeQt7bPZEaqnuSIC6oJCoxLEGjn8MtPs253K+2z7ufeq5OJMas49tpm9r23k07c+Lx1vPS7X/HSm5s40WDBbe2mqWgth5waPISgA7R6mDob+qrB3g3YWnB5GqiZM5OAWo0YiIqBlGRoLAKfE+ipoE/jpmVS7ihfKgIXG268zmo2PvoIm/oy0C+4mWsuj0Ee9LH50ec5eayCsQeRQtOyCfZ7qNu2hxbAB/QcPMDR4pMcApBKIW8q5rZeZLWNdMGgB6s2Kk9r8buMTMgYCmukq8dOX7OVjn0HefehX7O2u5fW4bt14fZsYN2GgzQ194DVSvupRja+30hOehjhpo8Rn2UyxJOnE93ThKimgXbfUN9vwGDQoVHJkQnd5X8fsYyEeAMRkW427tvMW9uySQkLJzdO+BgfjQjEciZkh+ENNLBudxlbCqeyfJKKaKPQS39SLig/KQF3Py5ZJJHJOcyeNYms1FRyJk8nJVKLfpyFJMFPyvnBxBk5FOQnMT87hqzoUOJMBtIT5AScXvqsXrQj/aQoQ5D5HMh6TnDs8Ga2bN7K5i1HOXiyiRaXl6ikKORSFSGuXmydZezbv5kt67eyddNJTrf4UZiTyclJIy4hAnVfDT0Ne9m1cwOrN+1na2kXNt0EsqZOIEnSSOPu13jqrZ0cr4/AGB+CyFrMkdde4u2dxdRGpGGOiyFRE0Tee5zjRWtYu2YrGw9XUm4NQZeey9ypLk78/UXWbT5MjVOMRxaCv/Df7HbHExtsoau2hA2HGzBmziVaCzqNks7mWioOFdGf8lWWLYgl1iA7p5+fLxLBT8qXSDAAfUWsf+411u44xsnOTjpKd7Jj+zY+fP80feowkhZMwBz0Y2+ooKaskAP7trN592G2l3URmnUZM6enkhimRikVEWJUUXZqDXu2bWDj3grKLAYmLZ7FlFg1KqkYmUJCQGyl+MDLbNm0lc2H2+lTx5E/O4fssIHvK/hJuQjx9uJu2ccLj/2HnTUdVDdVUn18B1s27+DD92vRzcwhNiMa7Qg/KVJVCB5HD71V+yjctIVNW7dypNxJW3MTLnsNFf5Y5uUmEebtwNF6kP171/He2h1sLWmjU5pI4sSJTEoLRRvwIm/fyfHjJezdepQjJ6pp9zjpLa6iTRNJR2MZjQd2sqHVxKzkbo4VHeTDdYc4cLqbvoQcChZMJzW0l4bdG1jzr5d4Y+sWdu3fy+mWak4cLqG8qg9JShZhBi0aeyO25iIO7tvMhxu2s3VrCcfru/Ao5ISaDV+a48chHxdBWyst+1/in29u5UCFGplei07dSvFL/+LNrScpU0ehMkeSav6kK1QXFuP5SZEp5Nj6eyne/AHW2JuYOzedtCjl5/avc7Exnp8UhVpFU3kxtaV1+DNuZuX8SEJVknMc3b1wEfykANrMpVxx67cHFaUHftdMjSZOONN/XhOiVRNm1CDzBulotOIM1WAyKNHKxeM01DBiUyZw2aIM9O56Olrqqa9vpqmli65+Bz4giI7EqbPImZxKmL2e+oZ66nttKOPymTxjNjOzwoBkZi1OJybMj7W5nvqGNurbg0QtmElqciwmrwO/340kcw4mvw+Jx4HdEcDvVpAxJ5xenx+b20hcagoz50cSaKuntbGe+hYrfnMsaYunk4QTp91AfKiaaBPYpTLSF2agcvsQyaOJiowiR2+nxwm+ABCegkESTobVSsY1UzDr1V/agCvwX8YvwZSWSVJqOBHeeurrB36SWDP65DjkSBFLQrls+TImpocjd3XS0mnBoUmm4IrJZCaEogakGiOmKQtJCe/H019PfSf4FUlcn29ApxxoLcqIBMw5eaRq6+luq6feoiM8NI4FGdqxTyVwMREUIUZB5JSppJhBYR2oY81tLegnZ6EJM5694BGSQtbEHOZNNeCqr6e5vh6LNoHceVNYOS8KSYcdkT+GibPTSEuR4Wypp76+kfpWD/r8PFLz0ogCpHIZucvmk2qSILJ2YQ2JIP3Ku7htfiIahYj2Tj8iZTxZt3yN+blmRM4e6ju6sGpNJF95NZOjQjDKPTgt3XTW19Pc1op+cgKqoAtrfRMtbb1YvWKCwTgmzc4nJ1uPePD96uvbaGnvxeJw89Gq918MQZ8bn7MXcXI+BokCuduG3e3H2SsjOT8Ul0JEn/MSM09hjEOjSSSjqZ2MJTlERBmEY6WflMgswvwaMgJe0pbnEaqUCcLdp0C0bdu24MKFC8eGXxS43W6Kq1v4zt+24fOPb0Ne4H9PeoyRv323AJ1Oh1R61jB7gRMEvFjb27A4Wjm+oZCSva1M/evPmG5UopX+d9YJXC4XHo8HnU6Q6C8FbDYbYrEYtfriXO0VODderxebzYZer0cs/u/0LxcDNpsNiUSCSnVpT7+dTic+nw+tVgt4sXd3YLG2UlF4il1PH2Tq3x5henIk4YqzlxgvdaxWK1KpFJVKQcDvxtbRRp+zlYOv76G5BaY9ej/TjUrk4ovvuFcgEMBisRD8gk8tCT2YgMCXiodgoJ4Nv7yery5Zwi0PPMSvdn3I9b/fT127fWxiAQEBAQGB8wA/0MKuv36L+64oYNXX7+Pxw6u5+Yk9HK7sGZtYYBROHL3Hefd7BdywYBlf/+2v+NmW9dz9VBF99ktsF+5zIuykCPzPubh3UgIQdNFWepKmbjsWDyBXIwpPZ1rigLfx/wbCTsqlhbCTcuki7KR8NoSdlAHO7KRoABedVWU0t/fQ7QIkMghPZ2KCiTDNBWdm80vnzE6KHL/HSlvpSRotXuxeQKlHGZHCtEQ98v/SCYr/Jl/WToogpAj8z7m4hZTzA0FIubQQhJRLF0FI+WwIQsoAo497CXwazggpl14d+rKEFKEHExAQEBAQEBAQEBA4rxBt3bo1ePnll48Nvyjwer2U17fzy5f34w98sdKdwBdHUqSOX9w+G41Gg0QiKON9GXg8HjweDxqN4Ob2UsDpdCISiVAqz/ZCLnBx4/P5cDgcaDQaYSflU+BwOBCLxZd8m3G73fj9fmEX9jPgcDiQSCSXpKn/YDCI1Wr9wndSRBs2bAjOmDFjbPhFgz8QwOn+bxguFPisiMUiVHIpItHFZ/HifCIYDAplfIkwNFAI3/vSRGjrnx6hzM4glMVn41Ivty9aQAEQbdmyJTh//vyx4RcFXq+X2pZunvzgqLCTch4TG6bh/qvzCQkJEVb+viS8Xi9er1dYHbtEcLlciESiS3JF71LH7/fjdDoJCQm5pCdMnxan04lYLL7k24zH48Hv91+SehWfF6fTiUQiQS6/9IwKBINB7Hb7Fy6oCIrzAv9zBMX5Lx9Bcf7SQlCcv3QRFOc/G4Li/ACC4vxnR1CcFxTnBQQEBAQEBAQEBAQucgQhRUBAQEBAQEBAQEDgvEIQUgQEBAQEBAQEBAQEzisEIUVAQEBAQEBAQEBA4LziwhBSfHbo2ss7f/k9v37wQR588EEe/vUf+duuDtqsgnlhAQEBAQEBAQEBgYsJyZ133vnLpKSkseHnF+5eqH2Pf79fTVlTN3ZnG11dzZSckJI0IY5QkxrlOD4A/X4/Hb1W1hfWEviCLQ4IfHKCCjXxMeFMSDSTHWsgJVRJ0OPC7QvgDUCoTsWK6ckoFIrz3hqNpe4wJUdOcrzaiyYlHCUwTtX73Dg6qqg5tpttB20oYgyolDJkYxN9Cnw+H36//5I3r/nfwO/sw1q1l237OnEoVagNakaWel9tCVVHDnHkWCXH20WYzFqUcslwPQoG/HSVHOL04SKOlrZSb5MQEa1HCgwZlPVY+2g7sYcTh45ytMZKP3JMoSHDdcTj8SASiZDJPk+tETj/CAIOeqtLOHWkiD0nyilrd6DSmFDJpUjFA1Z2PB4PSqVSMEH8KfB4PIjF4ku+zfh8PgKBgDBWfAYu5ToUDAZxu91jgz83F4aQ4rFB3SHqJ/+I6+68i+99bT6XZagoe+AZ+ucuwBxnJnIcJ7GCkHJ+oImPY9HMLK6emcqC7AhmJ+gRO3pp7/fQ4wp+NiHF78DucNJnDxKi+u+ZLW7Y+Xfe+OcbPL/JR9Zdc4mCURPQL4rOkg1s+8/jPPC7DhJvmEZchI7PYzxYEFL+W/hwtJVy8qVf88PfVeDNTCIpN5ZwgGAQn62XkxveZuNLL/LO6r2srlOQMTmVSL0KtURE0OfF3dPOgdf/xYevvME7O8o5ZteTOz0Dk0yMTCwi4HbQVXWK3S/+jfdffo93j/bSqzaTnhVHmHyg/QhCysVJMOjH1VPCyfVv8drLr/P06h3sru7BED2R2FANepVYEFI+I5fyBHMkgpDy2bmU69CXJaR8whnh/xi1GWY/xJ2XxTAlEiAEmTKChFxQCG4AznuWLkgkzNfK+29t4Ot/3cHDe2D2tGSykwxjk35yegrZuW0tv3ruxNiYL5WUK37ONbc9xK2pY2O+WCLzb2Dpt1/g+7kQPo4ALnC+0kJHXyNv7lzItJgQ4o1nYoJ+H60fPsMR5UySHlnLW1v+za6Hgpw62EpNrR0Ad2cj9e/8hf2ZP2DVM1tZ+/aP+N1KN6+/2UR/vxcAa1khFYcLObTkBX66fh9b/72c5YlWNm3pOHMzgYsSv8vF0X/+hV2ibOb+6hX2rf4H/77Jz85tR6ip7xqbXEBAQOCC5sIQUkRikKpQSMVIxYCjC3tHLXvFc0kwa4kIGZtB4Hxi38bjfLC7hsJGK70WB2UlrZT7/FjOtWti76C96D2euK+Aa68ooOD27/O1+57gmT++RiFgL36VP/3+z/zkZ7/l/X98h4KCgoHfD/7OX7bVDV+mo/hV/v3Q17i9oIArrr2F+//8Lkc6+rAD9pq97PnHfRQU3Mc999zHddddR0HB9dxy9x95txn6BuaD2DtOcPjdR7ivoIArCgr46oPP8f7eduQjznj11m7hwye/x90FBRQsWsQ9v/wX64vr6Bu4AsHAQV6593a+WnAH9z/8e15b/3eeuG8R11zxS/6xoZg6wGNro/Hgn/j17ddwXUEBN977K/76XgMqCYiFxdALBlvVadqLC/HecCNxRh3aEd8uEIBj+11oNVJSM7RowkzokqLxF53C39oJQH9vgMIdLlLTlcTE69BGmVFrlLi3HSBgdwLQUu+jvtzHtFkaQs06dHFRyBwOvEWnztxM4KJEolAx4db/xy0rlrIgIwadNoQQRRCv14c/cA6Hxa2HKX/tp3y7oIBlBQXc+fj7/PHPT/OX++5k5fdeZeMfruH7tz/Ao8/upcxSj3Xn49x2/ZUU3Pk4z64ZqFMBj4O2Db/koXuuGehrV93Eygf+wcYSCz0D1RJXexnlr3ybm69eNpDmpm/wzSfe5WgruP3Qc/A//Oun97Fq1X18+9vfZtmyZRQU3MkDf17DnvNJvrLU0bfjMW65biUFX/0jz31YPE5YydhcFx9eOxx/hp9991YKbv5//PRf+84Ke/jpfWNzCQD0VtO55Xdcf9UKCr72BK9sLB0/TOBjOccs8XymnfpjR9n1ejnm668mLSYU43/vtI/AZ6C9pYemThu9Lj9imQRNnAmxxQ5219ikAPQ1VlNWuJ9y41Ty5y1m2ZREYu1WqnfU0Q34jSnk5GWTPzmX2PSZLFu2bOA3I4sJUZrh6yhFoUTnTGPKsmUsnD6RlJ4jbDrcQkWbC6k2An1kLImO96luCxCVPIXLZyYSGtLIPzaW09XvAlslZcdL2HJYTOqyZSxctox8oxNHexV7W888rwId4Qk55CxbxvKlS5kQbOZUcR0HqmyAFERmUi6bT5q5g7bTW3hzRxO9xinMjO/A0dpMVXElnTVFvPhOH5oJM7ls2TJmpxjQdB3jwwaweM7cS+A8xlrO6eJGDpWauGZxLGaNbJS+UjAIfd0gl4ImBBBrECknYuptoddloQPweqGnC/QaUCoAaTgycSyhneU0+tz0A04nOGwQZgKJBJAnovapUfTWUwEI1eXiRSSWYEjOIUnbQ+OOV3jysWf5134Jc+anEB87zoFQaylHy+rZ2RLB7GXLWLpsGZNC2+grKebkKRGJM1Mw5xagcwbw93RilWuQRU1g/sJkjA4X3mYLeHvxdh5iV1MkUZlzBvraRXNYMMlEy8GjNLd1YXc00t1eze7ODKbPWTSQZsFkssJFlG89QIfDBeHphGucqPsPcbo7nFlzFnJZnpz23jrWHm4c++T/O+QaJKY04twtmMJDkIcaxwn7HKcALhTEUjBlEBG0Y9YGUEabzw6LihibSwBAoUVqTCHe1YQxQovMZBg/TOBjucCElC4ajhyicGcVtd4kVl4/hfjQkC9FJ0Dgi0cWoiYiIYzL8+S01/fR0z2+kOJ39OHsaMLijSLcHEtciAKjzogsLpsoQBYzk6UrCrh61TJy5t7KAw88MPC7eSGLs8OGryN1qdHqIoiIi8Ns1BBoOMy+4600drpRhKeRkL+E6/I8ZM5ewLV3foMf/fAWrlsWR+PWE3isTlwtR6mvb6NZt5ibHniA+x94gLuumUh6hJi2ESt/Yq8StTyM8Lg4YmNjkXVXcLK4nuJ6B6BAJEpm1p33sGp5FtnRaoLGKcy+9vt86xuXMz3ZiLSlio7KIg5aZ3PZ7d/iWw88wDdvX8K8DDENLQMTV4Hzn76qImpbbfSGX0ZBImg+9liyEhEJ6HFgwU332GgA9EgxY6SHVvzYxkYDEI4SNXL6qQOE6nIJ4Hfh6OuivbWDDhtotQrksrNNeLgaCznd3E995Epuf+ABfvDAA3xtURwpIXpk8klcfctMMpd/lxlZGaToAFUoyoyl3Pvta1iSEUMU4Ld10lOyjjXHbTgkocTFxRFn1mP2tVD44QaOVDbT1FxBTfE+PigRoQ2NGkhjkCHpqGDHe+s42eHAnzCXSfm5LM43kXr5DXz7/u/zw+8tITdKQsexmrGP/r9DFYYqfTFfvXoWl01JwWTUgUyFJCKF1AkLuH7FLKbnxIzNdfEhUUD8fFYumcOyOVlERYaCWAKhscRmzGLZwrksn/sln3u+UFGb0WQu5q5rZzJrcjImgxbkaqSRKaTmLuDGK2YyJTtqbC6BcbgwhJSgH7x9dDQUsu2l/ZQ0GZj8yHdYHi3B8LETAYHzAblKQUS8mdzsCOaLKlhT2supzvGnU6FRYaQnhxJ49x/84/eP8vDvXuKdRhfSqwuYAHysikbQD55eyg/sZOOTT/HPhx/h13/8E//cVkSn1TEioRKRKJ3ceXmY40NRh4aTlJjKwsYWtB4vlvoa/FI/sZdfRiQgA/S5eWRPyGHa0CV8VhpPHWbn8//h+Z8+wiO/+AV/Xb2N0paB4zujiSA953JuueN6lk+KQjfpRuZdPp3JEU6snc3EXbOcKL0OFaBOSCRp9hwWAmf2hgTOZ2oOl9Fn6cI0KYyqqirabD20dVqw9A2ehzmLIEG8eJEgQ4J8bDQAAYL48SBHiYjxN439BIAAUtQjLIAJXMQYJjPntgf4/VO/4jdXGdnz/jEqqrrO2kWzNtQiEfkwp6cMhxkSpxAdlYV5VMpz47H103GykMItT/P3v/yGRx55hEce+Q2//u2zbC+poLTdSXNDG41F29m59s/8/re/HEzzOE8+/TaHGlup7PJj9wAY0YdnMmVpDgqVHENiKrkheiZ3jC+i/6+QyuVkL7sce3MHzadrsFrbsNdtZKtiKdFhcaRrx+a4eEmalY9cIqX+4EksLhfuurUU+tMJmiYydYTOncBoZCoFOSsWYq1vobm8DqulGWvDdrYoriQhLIZUYWD/RFwYQoq3Dxpf57e3Pccx/WSmP3QXKyKFs/oXEqn5WSzKjyS9t4IH322iuXfscDqCiHwSb/4jzxcVsbeoiM1vPsytE2VUr95Iwyc5zuLpJtjwGk8/14N67sM8sbmIop1rOfzXa8iM+yK3WIPQtoE171dTLb2en35YRNHhQor+8y2umpU4NrHARU5neyPbXniCn6yYyozZM/nlxmf46R/e4L3Xj4xNOoibIM00E0E0IYxvY9GKCwtNxDMB+YCVsLPoxkIAB1HMBFRjowUuWhSGJBKn3s/89nL6bB3Uj4kPM0diMIaOCf10KFVqEtLzyPnGv3n6/T0UFRUN/g5RVPQqv7xpKvPiTSRPX8Hsh1azceehEWl2snfHU3xrShjxF1LFlCgg+moWqctQ9hexvrybtqP7iZucgyb885XnBUf4fCbrfeS4NvF2rYeq/XswRIdhSowbm1JgJBI1xFzLUtUpxH3H2FjeSceJQ8RPm4g6VJDuPikXhJDitVtp3r+V422FvPfyb3j49hUsWzygLH3333exp3rAMo7A+YaEYFDL5SuncbnJgau4lPePW3F6Asy/IovJaWGc3VRrObl+Hf/+9geUWHWIVTriYpREhELA42WUaqjVhre5jWbA21HMln8/xBNP/YXXioMQ8OCeHkFSfhjZJgn+plY2v7eF/j7ryCt8JMaUDCQ+CXUbtg/cA+g9UsSJY0fZO5Qo4MWTaSB0ZgRT4pRo+/sp3LyX5rrm0Rf7CEIio9FFJlD76rs09Q4q9ldXUbF9K+uB/rEZBM5Lpt7+ID9/fh0frn6fd956m/vn3sSP7rmCpStzABCLYeI0ENugtwFw9xNsK6RhUib2iHDEgE4P02ZDXzXYuwFbCy5PPTVzZhFQqxABUTGQkgKNReBzAj0VWDRuWibljPKlInCx4cbtrOa5X/2cl97eyqlGCx5rEw0nXuBVp5LuoOqsXVdRqJl+q4vWkrLhsJ6qAzQ0nWSEWh3QTr+1h45mN56qajb87PesPnaKUkCkNyKdNJXE0oNYmi1Y0KHTDf1CBvyzxMYREh1JQtFWGrrF+GRD8Vq0WjUKqegCW1QUgVhGdlYYQXEz6/cUs+HAdBblqIk1XVAv8vkRSUlIMBAR6WHTvk28tX0CKWHh5MRfENPH/yEiEMvJyQ7HG2xg3Z4ythROY/lEFdHGS6wOfQ4uDD8pQAA5IUkTycnLITcjldTUgV9W3hSy4kyEhpx9EELwk/I/RiInqI3muqUZTI0KIVKrwRwTzczsWOZPMRFo7qO9sR/xKD8prZQXFbPz/SJ6XbvYvGkLW7cdp7TXgHHSPJZPDUcFiEUSbC2tNB/ZzvqDe9m96RilzaCJySF/UhYxRjWtpUeoPH2YHTsLOVRYjldpYc+pZkT6OHRiK31Fr/HUW7s4XmfGFBeCyFpM0Wsv8dauU9Sa04mKjyVC5cVSvZfCjZvZtGULh0v7aWnpwGMt5ZQnlsuSzQQ6G6g7fZBduw+ydctpLN4mjte10+OWERqbRKL/EG/982Xe/3ATe0uqOFV8mv/f3p3HR13d+x9/zZLZM9l3kkAISUjYhLApKAapAu7WK9e11eqtrXa7eK+9thav1ba21a7a2/b6u62t+4IKCAQEQdawEyCEQEgmk2Wyzr7P/P4Aiw7BIoIMmc/z8Zh/zpxv+DJz5jvz/p5t17pV1PsLSDEnk5NmBJUaf9sGGjev4/3aWtbvaOFIRxhV7xqaNYWMzM1iRFbsT5DTJ/uknHuGtCxyClMxK7rZ9+Iy1u/aQ3t+Bfmlo7go1wgKBYYULW2WTWxe+xZLVm1jbaOK4dOnUD0qi0yDCpVagSFdT8Ped1i/ahnvfXiIA45UJs6ZxsRhBvRqJRqtiojSSf2mv1K7vJYV27oYMBQy8eIxVGYee39ln5QhKhLC23aIpgNb2PThalasq+ODQ32kj5lDzZRSSjP0KD++T4pGh9LdS7BxPevefpe3a2ups6npbleSqlUz/MZpFAL67jpaDu5kzco6Nm5owOJz0NPURrdfhT17JNVlBSQ7DtJxZDPr1q5k2fL1rH7/IPU2O9p0M+b0VPSKKCmOvRzct5bVq2pZvmIL67c202T3klmYRahpFWuXvclLq47Q2JpG+TQjHR+8zqq3lrPqSB/N6WWMLzSjH2RuzRdhsD0utHo97YcPcHhvI/6y25h/WT7ZxhMbrw5Fg+2TkqTR4Hb0U79yMa7CBcycUcaoPN3n2mB4KBq0DRn0tB2sp/lAC+HyBVx9WS4Z+qHXhhJ6nxSVPpW0Sf/Knfd9+8Qk6eOPr9SUU5YtP7zikgIU6gidR7to6g5hV5nISTv26G8dYGDAS/CkzcZSyC4rZdy8UlIDFno6LVj6NCTnl3FpzWjSPtrh3VDMiIoqLqtOw9VmocOuIrPyKi6ZMZupRUYUaZOoGTuCFFUAi60XuzaV8mvuZnqJAbM6iMvtJRINkjR6JpnRCKqQF7cXokE9o2fmYI+EcauHMbJqLLMvySJosdBpsWDX51N+8WRumlNIks2FQl/BxPIyRmVosHR00uYOkj/zeiaPKabQ4MfpDxMNOuntaCdgLsCUkYvJbsHSZqFzwIsvGAVtFhnF47n5+hJMvn56LBZ6wzrSx0/nvtsryImGUXoHn78j4k2IoN/JQEc7aeOLMBoNqI6/dwqlEnPVxRQXatGHLFi6nHSEy7iiMpPijGMzUtSmNNIn1lCa7SDosmDphaiuhJsmpmLWHfta0+YUk101jlKzhT6bBYvDTHZGETXlCTRQPiGpUSdlMWPePMaNykTt76Wzz0cotZrbr6lmQmHayUP9jCVUlo1kxig1NouFNosFp7qElJyRFH5s1FLJ1IsYXZaH2WWjI6Akv+ZWrp09kfI8Pd0uFUmakcycP4WSvCjBfgsWixVLm42uXgeeQIgIqWTkVFBz/SRytP04ui1YLO1Y23voHnARCEcJee2QnIahoIIsdz/BSACXXUlyWjLZFWasA35C4Ti7mZhTTkY0lfKgn7L548nUaxLzh3laIUbTcMrbbFTMqSI3L/XktiYGlzuazLCJ8kiQUXPHkaFLSsw2dIYUq1evjtbU1MSWDwl+v5/6w+1883erCYVPsYa8OO/KCtL43QOzMZvNqNUn94iJz8/n8xEIBDCbB1mmVAw5LpcLpVKJwSC73SaaYDCIy+UiJSUF5cf3oopGwddHR6+TTS+/z/79Foof/w7X5ySTrL4g7leeUy6XC5VKhV6vJRoJ4OzqYMDbQd3rGzna5KP6ye8xNU2PThV7Y21o8Xq9hEIhkpNNQAh3j40BZzuNdXtZ9z9bqP7to0wZmUuWdqj1BXx+TqcTtVqNXq8lEvYfa0O+Dra8+CHWDqh+7FtMTdehubDGPp6WSCSC3W4nepZHLcmVSQghhBjqQl7Y/iwPf+067nz0QZ5Y8joPP/AaPd2DL2yduHz4nPUsXngVt9RcxV2LHuWHq5bylWfq6HGc/eEs8SsCtPPBb+7nW/Nnc+3dD/LTusXc8vR66g71xVYWn+DF07+TN78zm5svn8vdTzzGIyuXcu9vtzHgllERn4X0pIjzTnpSzj3pSUks0pOSuE7dkxIGewv7mm3YBrygNpBkHsakihz0WrnunuhJ0RAJuelqqKdtwI8rCOiS0WSNZFJxCrqkoX1v95M9KX56DjdgtfXT5wNUSZA5irFFaWSaBl80PZGd6EnREA646GrYS5s9iDsE6FLQZo+gengKGtXQa0PnqidFQoo47ySknHsSUhKLhJTEdcqQIj7ViZCS2LMtToQUmeP2WZ0IKYnXhs5VSJErmBBCCCGEECKuKFatWhWdNWtWbPmQEAwGOdjSxWN/20Q4Ij0p8Wp4Tgo/un06JpMJlUom450LgUCAQCCAyXTmyxiLC4fX60WhUKDT6WKfEkNcKBTC4/FgMpmkJ+Uz8Hg8KJXKhP/M+P1+wuGw9MKeAY/Hg0qlSsil/qPRKE6n86z3pCjee++96NSpU2PLh4xwJIIvEIotFnFEqVCg06hRnLQcsTibotGovMYJ4qMvCnm/E5N81j87+cwcI6/DmUv01+5sBxQARW1tbfSyyy6LLR8SgsEg/r5Gkvb94NikQRGXosYSglWPYzQa5c7fORIMBgkGg3J3LEH4fD4UCkVC3tFLdOFwGK/Xi9FoTNgfS2fC6/WiVCoT/jMTCAQIh8MJOa/i8/J6vahUKjSaxFtUIBqN4na7z3pQGfIT5z2d29FuvI432qbS5U+NrSLOs6rkVmaWQmD6Ypk4fw7JxPnEIhPnE5dMnD8zMnH+GJk4f+Zk4vzZnzifMCHl6zv+jf2Ootgq4jy7Nm8L35t8SELKOSYhJbFISElcElLOjISUYySknDkJKWc/pMgVTAghhBBCCBFXJKQIIYQQQggh4oqEFCGEEEIIIURcuUBCih84yJrf/ZxfPPQQDz30EA/96Ekeem0/LX3e2MpCCCGEEEKIC5jqrrvuWjRixIjY8vgSdIBtJa++XM++1h4GfH309Hazc5+TyvHlZGckoxtkD8BwOEzQ1YHa8jJLOqrp9qfEVhFfgChJpGanM2p4NhcVpVGaoSMa8OEPRSgxWple0Ee4cAFarXbQiZ72o3Xs276bHYeCJJdmoQMGebtP4jm6ha11dWzY2kxLR5Dkkad/7FATCoUIh8MJv7zmuRfA6+qiadcmPty8g127uxhwqzClp2BIOlZj4Eg9Tds2s21nIzs7FaRnJ6PTqP7RLqORMD31m9lfV8f2/e0cdanJzU9BDXy0oGzA2U/nrvXs2rKD7UccONCSnmHk+D9BIBBAoVCQlPRRiRhqAn1Had23k9Wb+tEVpaPTqEk6PoE1EAig0+lQKAbo2L+HHRvr2e4xUZSuR6M++RoLQKCP3tYjbF5jRXn87yXSMiaBQAClUpnwn5lQKEQkEpHvijOQyG0oGo3i9/tjiz+3U1yt4kwgCE0W0u94hG889yIvvvgn/vDf97CgeSVHuvqx+GIPEPFEZ0qjvLKUq2dP4OvXTOSBuWO5qiyZPOPpNT/bnndY/Juf8/jji9kFnF7fWRT73rd47c8/5/sLf87jj7/N7tM+VogzEcLv6aa1cTNLXnyWnz35OIsW/R8vL95HmwOIRgk6emlYt5x3nvsVzz7xSx7/4wq2tPRjD0QAiIaC+Ho62L7kFV59+il+9dRz/P61TTQMBPGHj62aEvF76D1ygPUv/YkXnvwxTz39Ai+urqfFKZvWJg4/vQ0fsuLZX/HtB19gfbeTgdgqAHTQtO5lnn/8Zzz4Qj3dzk/5EeG10r5zHX/56XL29ntwxj4vhBBfsNP7lXi+GbJh+sPcdXEB1bkAbgK+flr2lpCerMNsij1AxJMJs6uYpnNzZNka7vn1Gh5ZD6NG5TA8zxhbdVAj5z7C9bf/F7eWxj7zaRTkXLWIn/y/lbz0i+9z22c6Vogz0UdD3SZWvn0A3Zwf89qytWzb9gd+sWgOY3IgGg7RueSPbNNNp+SH7/LKyj/xwcNR9mzpoLnZDYDf1krL679iQ/l3ue6Pq3j3tX/niWv8vPSKBbsjCICjYSuNdVvZPOcvPLJsA6v+PJe5w52sXNUVcz5i6DrIvqOwp3EiV1eC8ZR7x1Uw/YabuW/RTVQCp6wGYK6k8pp7eO7973FlfiqZsc8LIcQX7MIIKQoFqHVo1L3seeNJfnz7v/OtJ1qZvOS7TK/KJ0c21Y1rDRt38dbWI6xpc+Hxh/CFQKlSojzFbshu2x62vfkoD9TUMK+mhjse+hNvfNCB5mOttX/7S7zw2G3U1NQce3ztR/xu6V6Ofux2ojJJh95gwqjXkRTT0m173uWNR29k9uxnWNxko7t5Je/+5tvUzF/A7Adfp6ltAJpX8s5vvk1NzY3Mnv00i5ve5++/+E++XVPDjXd+g2e2gs0D/dtf5K+LPjqX2dR8bRG/X1b/iXMRCeDwJuy+MP7Jt3HD9JHkZqaSnGxAr1OjUkAkAjs3+UkxqSgtN2LMSMM0PJ9IXT3hjm4AHANRtq71U1amJb/QhDEnC71RR2D1ZqLuY/2AHS0hWhpDTJluIC3ThGlYLmqPl2BdfcwJiaGqb/Na+kIekmouZ4QK1INfSgElak0SGp0G1fHhgk1LHuOpb9RQc82dXPsfb9PR4z5W9s05zLnydm6+7X9Z3eWg//hf8Hc1cPBvD3DLdQ9w550PsGDBAmpqrmHuNf/J8zt7aTvePe2zt3BozU/5wU1Xc33Nndy38CmefuYZfnrl1cz/8QrWHer7+InFL/tRBt7/KQtunE/NXU/xv+/Wn1T2/JJ9sUcNPUE37PwjP/jmv1Jzy3/w/T98eFLZf/1hQ+xRAqD/MN21T3LTtXOp+coveWH5gcHLxD91YYSUf9CRMWICE2ZNZfoELbblqzl4dIA+Ge4V1+zd/bR6NaSWlHLH1WO4rRIaGgdotQ3yxrkOcXB3PSu3KimbN48r5s1jcoYfX9ch1nUcrzOwg/qOCI7kycybN4958+czb2YJSd1tNNcfOsWwh0/SpxeRWTgJU/NBnH4/vuRhFFWNZvqELLw724h4ApA8jOx0E4WqVtY2D+Dym1EHXUT1SpTDqxiTFUXv3EF9exSn+aNzmce8mSWobRaO7ms6rXMRQ4Ozo4+B5iase9bw1k9+xI8e/jV/WLKN3bZjvSTRKAz0QpIajAZAaUKhG0/6gJV+nx0bEAxCfw+YTaDTAupskpSFZPQ00Bry4wC8XvC6IDMdVCpAMxxDyIB2oIVGIBB7YmLoiIagv441m9w4/VnMmpyF4bN+kbsCaNOKKJw2iy9NKcagU2Mumsi4S+Zx8dgxGFuacISC/2hHSn0qpqIJFIc/wNbjQJ89ljmzJlBVYOXVDY0c7nSCx0J74w5eWeYhc8qlXDpvFqPzg9hat/OmNZkpIzPJNV8gcxw0JlQZZRQHOsjMMaHNTDu5LCMt9qihR6mGjApy8ZBrBkN+7kll+oKc2KMEgNaMOr2U4oCVjFwzmvTUwcvEP/WZrm3nXzJF1fO4+mt3cecNxQSWPEvdgU6sMng2/ilVaPU60s160nTg84cJBk/emdTXvpOWlg7akufwLwsX8uDChXz1hgmU5yrp6gGI4j68ho27j3CgV09BQQEF+fkUaJy01m1k06ZdHPHE/tWTJQ8bT8WM25iVD6YkILOS8bPnce/tNYwD9BwrG3fp9Xz9jquYN8VF/94W3OmljFtwJ3fcvoA5w6Oo2tawYXczB/o+fi4OWrZuZONpnosYGnq7uzi6YweNazewp8FKq8VGW8NhrNYOemMrA6BDQTEpeLHjP0UdM2qySKOfTsK4Yp8GIAsdBjQ4OAocGxQmhqJIKIhtx0oO+XPR51UyKTe2xqmEiIT7ObJnF73JF1F19Tf55v1388CXJ5Bi0pI97hquum0h991+MzNy+cRCNEnmXLIn3cS88RrGT5vMl265m+9996vc95VKPHsP47UNEOhppOPwPnaHLmX2PQ/wjYV3c+vcKkblGxkovJS7Z42iLOf0hveed/pM9GVXcNcN05l+0UjS08yQpEeVM4KSqsu5ae50Jo/Njz1q6FFpoehS5l85gytnjCY3Jx2UKkgvoKD8Yq6smcHcGTKOelCGLEzlV3DPDdOZNqGEtNRk0OhR55RQOqaGm+dPY1JlXuxRYhAXREiJhkMEB2w4fEH8EQAzWn0eFRPbCIQD+D5lLqCIDwp3D/Xbd/PM37fw9EYPFeOyGFVoJPbemqO1mbAqzLDLLyEXSAJSxoxj9JixTD5ex374IPvWv8Yrf/05ixYtOv74La+v2sSeDjvt9pg/+jkYiiYzYc6t/GTCZja89Eve7TKgqZrDdWUZANibGtj34au8+pdPnssbqzef9XMR8c0xsJ/GI63YqOau3/+dP77wEx4YYySjv4UDg85pjxIlSBA1SahOMV8gQpQwATToUJxitaUQYSBCEsaPrQAmhp5wMMSeFVtQZ6pQZClobm3B5rFjtfbj9XxKH1rIQ8C2n6V/+TsbFSMwVkxmSnpspU+jAkYwatIYCsvz0CabKagcx8zeAbI9PtxdVjyOHgrnX0Ge0YAOyMktYGxpBSPhFO02fqk1GiqvnIWn3YZ1/2Ecjk7cR1ewWnsl+ZmFlCXQPNgR0yaiUalo2bKbAa8P/9F32RoeRTR9PNUJ0KF0ppL0WqrmXY6ztZ32hmacdivO1tXUaq+mOLOA0gRqQ5/HBRFSggM2LC/9lHf3WWl0Athw2Rv4YPEYjEkGkuXNvmAEfG5aD2xht9ZIitZACSf3pvwzufmFVNz4MN96diXbtm372ONtnn/yTq487buLpyfgh7YWCOSAraOP7saPRmtDTn4hFTc8zLeeiz2XxTz/xB1n/VxEfMu8qIIJd17JtGGgTwLoweHso2PQOe1+olixkk0+RgZfCN6JDzttFDEGDVmxTwPQi4MIHnKZ+lEvoBiSIpEwbS0NvLrofr52RTXz7/wyv6h7k3//7kvsrGuNrX6CrY/gO2vZsN9LVAdpMtLk06l0kH89cwwN6BzbeK+xl87tGym8aAymrGM3qBJG1mVMTAkxxreC144GaNq0ntT8TNKHF8bWFB+nMkDBTVyl34vSvpPlB7ux7dpK8eTxGBJhuOBZckGEFLU6Sl6ujzefuJ+7r76cyy//Mvc88jK+H/6amuoRkkjjlopINJkvXzOF2y4t4aIcHRqtnvzSCczQgZnQSctcppaUoQqpObp0FW3Hh670b69j945trAdAgXLsRHJcNpIaGmjxJpOc/NHDiEGnIem0byX7IdpMp82Pu62fI+8u542nfssS4KMOENvu9Wx+5+98ePH3efD+Z3h8JuiPvs3P/74PFAqU4yYdP5eDtH6ucxEXupKpsxmeV0Z430G6lFFCdNHfqyMcTCU7E5RKGD8FlC7obwH8DqKdW2i9qAJ3TjZKwJwCky+BgcPg7gFc7XgDLRyZOZ2wQY8CyBsGpSPBUgchL9B3CLvJj3XC2E/spSKGniS9iasefYFnX1nK0nff4fmnn+Xe8Vfygx9eS9W4gtjqJ2TkYJh3Mz/8zigcG/aw7p299MTW+RySC4oxpubQ/Oo7tDndeIH2/dvZ9sG7NFyoQxCVSVSOziKqamfp+r0s2zSVK8YYGJaeYJ8whZqi4jRy8oKs+HAFr6wew8jMLMYWXRA/H88jBSiTqKrKIhhtZem6BlbWTWbuBD35aQnWhj6HC2IzR4VSSZIpmbAmi+Ki4ZSVjaZq3BRmXn0VEwq0mAcfJyGbOZ53ClAo0GemUZyXydjSAqpH5XDxcDP+jlbqjvShjrRQ/bHNHJP0JsIBF44jG9j63gqW19aydb+D9vYeQs597PYN45LRReQpBvB3bmfLhuW8s7SW2tp6tjd14VKpyMozoos2sfrXf+aNN97mnfdXs7V+J/ub91NXW0+vyow+O5sMBjD0rePDzQfY9P5Odh+y0O124d6zD0vWKPSO3TR+8Cr/89pmtndWMOuaSjSHa9myYgVL99sJDpvEiPw0MsLd+Dq3sXnDin+cy47DXbjUajLz0tHFvizngWzmeO5pDCng8uGp38zmtStZUbuHpmARGaPHMr4khWSFAoNZS5tlE5vWvMmS2m2saVQzYvoUqkdlkmlQoVIrMKQbaNj7NutWLWXZ+kYaHGlMnDONicMM6NVKNFoVYaWL+o3/x8rltayo68JuLGTSxWOozDz2/spmjkOTQqnElD2M/KIk/M0N7Hx7FRsaj9BbNZOJw3MoNGtjNnNs5+DaFSx5axcb0qbxnYltLFv6IavXb8TS24c3cwLDzM3sePFl3vzbq7yxahWbdm7lQHsTOz7YS5tDicII4e1/4blXatnYoEedYsJs6mTfX57jldrd7Nfnoi8oZnSWHp1lAzvWvc/KlTvZdchCt1dDuH8YN143juTk+L72DLYRn0avp73pAEf2HiJQfivzL8sn23hi49WhaLDNHJO0Wtz2fupXvIWraAEzZ5RRlqe74IbxnWuDtSGt3kDbwXqaDxwlXLGAqy/NJUM/9NpQYm/mqDHB8Cu49av3s3DhQhYuXMg3772LL41UkhLf170EF0GBj+31rexpc+FGQ7pRjdrdyeo9ndTbvJw0r9xQTEnVWK6YkUPIasVmteI05lN+yRRuurIYTbcbZSiPyurxTJiYg85rxWq1YrXa6OoZwOn1EyYC+HDauuiyWgkYlGSNHYbGaqXHaqPP6cMfAWNaCpNumMtIrY+gx0k0r5wJ82/hnktzCUejOB12FAYz5pETqdQoUCrCRNNHMay0grHFarpdIUKRfCqrJzDhok+eS2e3HYfHTzj2/yeGLuMIyqrGMGtKFiFrO11WH4rCYnJLCsk7/gPTXHUxxYU6jBEr1m43XZEyrqjMpDjj2J0WtSmN9Ik1lGa7CLutWPuVoC/hpotSMR+fzazNKSa7ahyjUq3091ixOlPJzizi8vLkmBMSQ1cQv6ufYNhHzsUV6ANRlIHBrjZBfEEdSZpcLpmUj85cQuXYYRRmKXB392D3QyQawN3XTbfVijPiI2d6GXp7HwPWLnoG3Hj9AcI+O0ml1WRo9egDHryBKD67jtLqbEJ6JY5oJnkjx3PjvCK0zl56rTYCimQyC0YzzJyMWnlh/NQ4SU4ZGdFUyoN+yuePJ1OvISFjf+owjKbhlFu7qfhSFbl5qXFx8+2CkFtBZthEeSRE2dxxZOiSErMNnSHF6tWrozU1NbHlQ4Lf78fTuR3txuv4+o5/Y7+jKLaKOM+uzdvC9yYfIjB9MWazGbVa7s2cCz6fj0AggNlsjn1KDEEulwulUonBYIh9SgxxwWAQl8tFSkoKyi8yHIQDhD19tHa7CIYi0LGVgweaeMn2JX714ESy0+L7Z63L5UKlUqHXa4lGAjg62xnwdlD3+kaONvmpfvJ7TEvXo1MN7aE6Xq+XUChEcrIJCOHq6cLu6OBg3V7W/XEL1b99lKkjc8nSDrW+gM/P6XSiVqvR67VEwn6cne30+zrY8tKHWNuh+r+/xbR0PRrl0GtDkUgEu91ONPrZ5xl/mi/wCiaEEEKIIWngCPbaRVz7pUuprq6m+t7f8ZPdqdzxL1MxmeI7oHySD5+znsULr2JBzVXctehRfrh6KV/51Va6HWd/OEv8igDtfPDr+3lwfg3X3v0AP6tbzIJfrqfuQtmY87zx4unbyRvfuYKbL5/L3U88xiO1y7j3t9sYcF+QM7TOG+lJEeeV9KR8MaQnJbFIT0riOm89KUEPwf5Wtjf14AuEQGsiOSOXksJhpOgg3m8en+hJ0RAJuelq2Eeb3Y87CGiTScouobo4Ba36C3xNz4NP9qT46TlykPaufvr8gCoJMksZW5hGhukUk4ET2ImeFA3hoIuuhnqs9iDuEKAzo80uYVKxGY1q6LWhc9WTIiFFnFcSUr4YElISi4SUxHXeQsoF7kRISexFvE+EFJnj9lmdCCmJ14YkpJyBj4eU55svp82bGVtFnGeT0pqYW+6TkHKOSUhJLBJSEpeElDMjIeUYCSlnTkLKOQgpq1atis6aNSu2fEgIBAL4evah2Xk/RAdb+UTEg4ipjOBFz2IymVCpZDLeuRAIBAgEAphMsqlQIvB6vSgUCnS6C2kugDgbQqEQHo8Hk8kkIeUz8Hg8KJXKhP/M+P1+QqEQRqMx9inxT7jdbtRqdUIu9R+JRHC5XGc/pLz33nvRqVOnxpYPGdFIGMLe2GIRTxRKUOlRKOJ80PIFLhqNymucID76opD3OzHJZ/2zk8/MMfI6nLlEf+3OdkABUNTW1kYvu+yy2HIhhBBCCCGEOC0fDRc8W4b0nBQhhBBCCCHEued0OgkGz94yyzJgVQghhBBCCBFXJKQIIYQQQggh4oqEFCGEEEIIIURckZAihBBCCCGEiCsSUoQQQgghhBBxRUKKEEIIIYQQIq5ISBFCCCGEEELEFQkpQgghhBBCiLgiIUUIIYQQQggRVySkCCGEEEIIIeKKhBQhhBBCCCFEXJGQIoQQQgghhIgrElKEEEIIIYQQcUVCihBCCCGEECKuSEgRQgghhBBCxBUJKUIIIYQQQoi4IiFFCCGEEEIIEVckpAghhBBCCCHiioQUIYQQQgghRFyRkCKEEEIIIYSIKxJShBBCCCGEEHFFQooQQgghhBAirvx/aitoq9EjELoAAAAASUVORK5CYII=;" parent="1" vertex="1">
          <mxGeometry x="680" y="780" width="809" height="127" as="geometry" />
        </mxCell>
        <mxCell id="z-R-k_pJYk7Y7Y5F1F8H-1" value="a normalizing table will be required&amp;nbsp; here when mapping this into relations&amp;nbsp;" style="text;html=1;align=center;verticalAlign=middle;resizable=0;points=[];autosize=1;strokeColor=none;fillColor=none;" parent="1" vertex="1">
          <mxGeometry x="520" y="390" width="420" height="30" as="geometry" />
        </mxCell>
      </root>
    </mxGraphModel>
  </diagram>
</mxfile>
